<svg width="215" height="347" viewBox="0 0 215 347"  fill="none" xmlns="http://www.w3.org/2000/svg">
<path d="M3 78V90.5L13.5 105V121.5L8 151.5L18.5 164L35 170L64.5 164L75 151.5L91 40L100.5 30.5L107 40L127.5 100.5L139.5 121.5L171 139L185.5 151.5L190 170L177.5 184.5L145 198.5L133.5 222.5V232H145L154.5 213L164.5 208H185.5L195 222.5L203 243.5H219L291 222.5L311 213L324.5 198.5L338.5 179.5L332.5 170L260.5 121.5L127.5 30.5L119 16L100.5 4L83.5 16L75 40V63.5L64.5 78H35L28 63.5H13.5L3 78Z" stroke="#FFFEFE" stroke-width="5"/>
</svg>
