<svg width="219" height="170" viewBox="0 0 219 170" fill="none" xmlns="http://www.w3.org/2000/svg">
<path d="M42.8689 32.4722L27.7213 67.6111L24.9672 75.2778L38.7377 99.5556V113.611L5 159.611L9.13115 166H16.7049L64.9016 148.75L165.426 112.333L173.689 99.5556L177.131 88.0556L189.525 81.0278L198.475 72.0833L215 50.3611L212.246 38.8611L189.525 26.7222H184.016V32.4722L191.59 42.0556V50.3611L107.59 106.583L89.6885 113.611H69.7213L64.9016 106.583V50.3611L77.2951 42.0556L89.6885 32.4722V26.7222L82.1148 17.7778L69.7213 5L60.082 8.83333L42.8689 32.4722Z" stroke="white" stroke-width="7"/>
</svg>
