<svg width="257" height="219" viewBox="0 0 257 219" fill="none" xmlns="http://www.w3.org/2000/svg">
<path d="M9.19063 37.8871L4.4748 10.1222L10.4491 4.21473L22.7609 4.67488L29.0984 11.0425L28.8568 17.5049L253.178 151.229L252.771 162.113L236.295 174.1L215.487 192.055L198.458 196.868L143.803 207.768L113.141 214.456L102.763 206.235L95.8594 193.034L84.8261 180.36L75.5142 176.606L59.3817 179.409L40.5872 198.461L29.917 198.062L30.1966 190.58L35.1686 178.504L47.1045 167.029L70.4424 158.364L90.933 148.912L91.4288 135.647L86.8854 125.26L77.8023 115.383L57.8965 109.19L33.8958 91.6034L20.3583 68.9584L9.19063 37.8871Z" stroke="white" stroke-width="7"/>
</svg>
