<svg width="172" height="36" viewBox="0 0 172 36" fill="none" xmlns="http://www.w3.org/2000/svg">
<rect x="20" y="2" width="19" height="21" fill="#98BDC5"/>
<rect x="10" y="8" width="19" height="21" fill="#81A7AF"/>
<rect y="12" width="20" height="21" fill="#659CA8"/>
<path d="M61.056 18.264C61.056 20.184 60.696 21.792 59.976 23.088C59.272 24.384 58.256 25.36 56.928 26.016C55.6 26.672 53.992 27 52.104 27H47.328V9.864H52.608C54.336 9.864 55.832 10.184 57.096 10.824C58.36 11.464 59.336 12.408 60.024 13.656C60.712 14.888 61.056 16.424 61.056 18.264ZM58.776 18.336C58.776 16.816 58.52 15.568 58.008 14.592C57.512 13.616 56.776 12.896 55.8 12.432C54.84 11.952 53.672 11.712 52.296 11.712H49.488V25.152H51.816C54.136 25.152 55.872 24.584 57.024 23.448C58.192 22.296 58.776 20.592 58.776 18.336ZM69.4433 13.92C71.0113 13.92 72.1713 14.264 72.9233 14.952C73.6753 15.64 74.0513 16.736 74.0513 18.24V27H72.5153L72.1073 25.176H72.0113C71.6433 25.64 71.2593 26.032 70.8593 26.352C70.4753 26.656 70.0273 26.88 69.5153 27.024C69.0193 27.168 68.4113 27.24 67.6913 27.24C66.9233 27.24 66.2273 27.104 65.6033 26.832C64.9953 26.56 64.5153 26.144 64.1633 25.584C63.8113 25.008 63.6353 24.288 63.6353 23.424C63.6353 22.144 64.1393 21.16 65.1473 20.472C66.1553 19.768 67.7073 19.384 69.8033 19.32L71.9873 19.248V18.48C71.9873 17.408 71.7553 16.664 71.2913 16.248C70.8273 15.832 70.1713 15.624 69.3233 15.624C68.6513 15.624 68.0113 15.728 67.4033 15.936C66.7953 16.128 66.2273 16.352 65.6992 16.608L65.0513 15.024C65.6113 14.72 66.2753 14.464 67.0433 14.256C67.8113 14.032 68.6113 13.92 69.4433 13.92ZM70.0673 20.784C68.4673 20.848 67.3553 21.104 66.7313 21.552C66.1233 22 65.8193 22.632 65.8193 23.448C65.8193 24.168 66.0353 24.696 66.4673 25.032C66.9153 25.368 67.4833 25.536 68.1713 25.536C69.2593 25.536 70.1633 25.24 70.8833 24.648C71.6033 24.04 71.9633 23.112 71.9633 21.864V20.712L70.0673 20.784ZM82.3204 25.512C82.6404 25.512 82.9684 25.488 83.3044 25.44C83.6404 25.376 83.9124 25.312 84.1204 25.248V26.856C83.8964 26.968 83.5764 27.056 83.1604 27.12C82.7444 27.2 82.3444 27.24 81.9604 27.24C81.2884 27.24 80.6644 27.128 80.0884 26.904C79.5284 26.664 79.0724 26.256 78.7204 25.68C78.3684 25.104 78.1924 24.296 78.1924 23.256V15.768H76.3684V14.76L78.2164 13.92L79.0564 11.184H80.3044V14.136H84.0244V15.768H80.3044V23.208C80.3044 23.992 80.4884 24.576 80.8564 24.96C81.2404 25.328 81.7284 25.512 82.3204 25.512ZM91.5683 13.92C93.1363 13.92 94.2963 14.264 95.0483 14.952C95.8003 15.64 96.1763 16.736 96.1763 18.24V27H94.6403L94.2323 25.176H94.1363C93.7683 25.64 93.3843 26.032 92.9843 26.352C92.6003 26.656 92.1523 26.88 91.6403 27.024C91.1443 27.168 90.5363 27.24 89.8163 27.24C89.0483 27.24 88.3523 27.104 87.7283 26.832C87.1203 26.56 86.6403 26.144 86.2883 25.584C85.9363 25.008 85.7603 24.288 85.7603 23.424C85.7603 22.144 86.2643 21.16 87.2723 20.472C88.2803 19.768 89.8323 19.384 91.9283 19.32L94.1123 19.248V18.48C94.1123 17.408 93.8803 16.664 93.4163 16.248C92.9523 15.832 92.2963 15.624 91.4483 15.624C90.7763 15.624 90.1363 15.728 89.5283 15.936C88.9203 16.128 88.3523 16.352 87.8242 16.608L87.1763 15.024C87.7363 14.72 88.4003 14.464 89.1683 14.256C89.9363 14.032 90.7363 13.92 91.5683 13.92ZM92.1923 20.784C90.5923 20.848 89.4803 21.104 88.8563 21.552C88.2483 22 87.9443 22.632 87.9443 23.448C87.9443 24.168 88.1603 24.696 88.5923 25.032C89.0403 25.368 89.6083 25.536 90.2963 25.536C91.3843 25.536 92.2883 25.24 93.0083 24.648C93.7283 24.04 94.0883 23.112 94.0883 21.864V20.712L92.1923 20.784ZM112.509 9.864L106.389 27H104.229L98.1094 9.864H100.365L104.229 20.856C104.405 21.32 104.557 21.768 104.685 22.2C104.813 22.632 104.925 23.048 105.021 23.448C105.133 23.832 105.229 24.216 105.309 24.6C105.389 24.216 105.477 23.824 105.573 23.424C105.685 23.024 105.805 22.608 105.933 22.176C106.077 21.744 106.229 21.288 106.389 20.808L110.229 9.864H112.509ZM116.652 14.136V27H114.54V14.136H116.652ZM115.62 9.312C115.94 9.312 116.22 9.424 116.46 9.648C116.716 9.856 116.844 10.192 116.844 10.656C116.844 11.104 116.716 11.44 116.46 11.664C116.22 11.888 115.94 12 115.62 12C115.268 12 114.972 11.888 114.732 11.664C114.492 11.44 114.372 11.104 114.372 10.656C114.372 10.192 114.492 9.856 114.732 9.648C114.972 9.424 115.268 9.312 115.62 9.312ZM129.104 23.448C129.104 24.28 128.896 24.976 128.48 25.536C128.064 26.096 127.472 26.52 126.704 26.808C125.936 27.096 125.024 27.24 123.968 27.24C123.072 27.24 122.296 27.168 121.64 27.024C121 26.88 120.432 26.68 119.936 26.424V24.504C120.448 24.76 121.064 25 121.784 25.224C122.52 25.432 123.264 25.536 124.016 25.536C125.088 25.536 125.864 25.368 126.344 25.032C126.824 24.68 127.064 24.216 127.064 23.64C127.064 23.32 126.976 23.032 126.8 22.776C126.624 22.52 126.304 22.264 125.84 22.008C125.392 21.752 124.744 21.464 123.896 21.144C123.064 20.824 122.352 20.504 121.76 20.184C121.168 19.864 120.712 19.48 120.392 19.032C120.072 18.584 119.912 18.008 119.912 17.304C119.912 16.216 120.352 15.376 121.232 14.784C122.128 14.192 123.296 13.896 124.736 13.896C125.52 13.896 126.248 13.976 126.92 14.136C127.608 14.28 128.248 14.488 128.84 14.76L128.12 16.44C127.768 16.28 127.392 16.144 126.992 16.032C126.608 15.904 126.216 15.808 125.816 15.744C125.416 15.664 125.008 15.624 124.592 15.624C123.728 15.624 123.064 15.768 122.6 16.056C122.152 16.328 121.928 16.704 121.928 17.184C121.928 17.536 122.032 17.84 122.24 18.096C122.448 18.336 122.792 18.576 123.272 18.816C123.768 19.04 124.424 19.312 125.24 19.632C126.056 19.936 126.752 20.248 127.328 20.568C127.904 20.888 128.344 21.28 128.648 21.744C128.952 22.192 129.104 22.76 129.104 23.448ZM134.324 14.136V27H132.212V14.136H134.324ZM133.292 9.312C133.612 9.312 133.892 9.424 134.132 9.648C134.388 9.856 134.516 10.192 134.516 10.656C134.516 11.104 134.388 11.44 134.132 11.664C133.892 11.888 133.612 12 133.292 12C132.94 12 132.644 11.888 132.404 11.664C132.164 11.44 132.044 11.104 132.044 10.656C132.044 10.192 132.164 9.856 132.404 9.648C132.644 9.424 132.94 9.312 133.292 9.312ZM149.583 20.544C149.583 21.616 149.439 22.568 149.151 23.4C148.879 24.216 148.479 24.912 147.951 25.488C147.439 26.064 146.807 26.504 146.055 26.808C145.319 27.096 144.495 27.24 143.583 27.24C142.735 27.24 141.951 27.096 141.231 26.808C140.511 26.504 139.887 26.064 139.359 25.488C138.831 24.912 138.415 24.216 138.111 23.4C137.823 22.568 137.679 21.616 137.679 20.544C137.679 19.12 137.919 17.92 138.399 16.944C138.879 15.952 139.567 15.2 140.463 14.688C141.359 14.16 142.423 13.896 143.655 13.896C144.823 13.896 145.847 14.16 146.727 14.688C147.623 15.2 148.319 15.952 148.815 16.944C149.327 17.92 149.583 19.12 149.583 20.544ZM139.863 20.544C139.863 21.552 139.991 22.432 140.247 23.184C140.519 23.92 140.935 24.488 141.495 24.888C142.055 25.288 142.767 25.488 143.631 25.488C144.495 25.488 145.207 25.288 145.767 24.888C146.327 24.488 146.735 23.92 146.991 23.184C147.263 22.432 147.399 21.552 147.399 20.544C147.399 19.52 147.263 18.648 146.991 17.928C146.719 17.208 146.303 16.656 145.743 16.272C145.199 15.872 144.487 15.672 143.607 15.672C142.295 15.672 141.343 16.104 140.751 16.968C140.159 17.832 139.863 19.024 139.863 20.544ZM159.123 13.896C160.659 13.896 161.819 14.272 162.603 15.024C163.387 15.76 163.779 16.96 163.779 18.624V27H161.691V18.768C161.691 17.728 161.459 16.952 160.995 16.44C160.531 15.928 159.803 15.672 158.811 15.672C157.387 15.672 156.403 16.072 155.859 16.872C155.315 17.672 155.043 18.824 155.043 20.328V27H152.931V14.136H154.635L154.947 15.888H155.067C155.355 15.44 155.707 15.072 156.123 14.784C156.555 14.48 157.027 14.256 157.539 14.112C158.051 13.968 158.579 13.896 159.123 13.896Z" fill="white"/>
</svg>
