<svg width="121" height="197" viewBox="0 0 121 197" fill="none" xmlns="http://www.w3.org/2000/svg">
<path d="M13.8591 48.7619L9.30872 73.0612L6.27517 94.1633L4 113.347L9.30872 129.973V150.435L20.6846 183.048L24.4765 192L32.0604 189.442L41.1611 172.177V158.109L50.2617 145.959V137.646L41.1611 121.02V109.51L64.6711 92.8844V87.7687L59.3624 80.0952L44.953 36.6122L59.3624 25.7415L78.3221 28.2993L88.9396 42.3673L84.3893 59.6327L61.6376 158.109L73.0134 161.946H84.3893L117 28.2993L111.691 14.8707L98.7987 4H84.3893L29.7852 25.102V42.3673L13.8591 48.7619Z" stroke="white" stroke-width="7"/>
</svg>
