<svg width="202" height="50" viewBox="0 0 202 50" fill="none" xmlns="http://www.w3.org/2000/svg">
<path d="M68.207 7.05859H74.4531V25H68.207V7.05859ZM59.5234 19.1641C59.5234 18.3047 59.6367 17.5078 59.8633 16.7734C60.0898 16.0312 60.4414 15.3828 60.918 14.8281C61.9492 13.6406 63.4258 13.0469 65.3477 13.0469H66.25V25H65.6406C63.6719 25 62.1484 24.4609 61.0703 23.3828C60.0391 22.3516 59.5234 20.9453 59.5234 19.1641ZM86.4062 16.375C86.4062 14.1562 87.8398 13.0469 90.707 13.0469H92.3477V19.0234H86.4062V16.375ZM78.2031 13.0469H84.7188V25H78.2031V13.0469ZM99.168 9.83594C96.582 9.83594 95.2891 9.02734 95.2891 7.41016C95.2891 6.58203 95.5977 5.98828 96.2148 5.62891C96.832 5.26172 97.7734 5.07812 99.0391 5.07812C100.305 5.07812 101.238 5.26172 101.84 5.62891C102.441 5.98828 102.742 6.58594 102.742 7.42188C102.742 8.25 102.461 8.85938 101.898 9.25C101.344 9.64062 100.434 9.83594 99.168 9.83594ZM95.9453 13.0586H102.25V25H95.9453V13.0586ZM114.039 18.0156C114.039 16.2656 114.484 15 115.375 14.2188C116.289 13.4375 117.754 13.0469 119.77 13.0469H120.484V17.4766C120.484 21.1094 119.445 23.4375 117.367 24.4609C116.641 24.8203 115.77 25 114.754 25H114.039V18.0156ZM111.273 25C109.312 25 107.852 24.3164 106.891 22.9492C106 21.6836 105.555 19.8594 105.555 17.4766V13.0469H106.27C108.285 13.0469 109.75 13.4375 110.664 14.2188C111.555 15 112 16.2656 112 18.0156V25H111.273ZM131.98 13.0469H133.035C135.91 13.0469 137.625 14.0234 138.18 15.9766C138.367 16.6094 138.461 17.3398 138.461 18.168V25H131.98V13.0469ZM123.531 13.0469H130.047V25H123.531V13.0469Z" fill="white"/>
<path d="M31.1981 6.01882L41.7711 5.97459L11.2558 44.3128L0.6828 44.357L31.1981 6.01882Z" fill="#D9D9D9"/>
<path d="M135.707 29.6968L144.781 38.0539L76.8609 37.219L67.7873 28.862L135.707 29.6968Z" fill="black"/>
<path d="M47.5152 5.17898L58.0883 5.13474L27.573 43.4729L16.9999 43.5172L47.5152 5.17898Z" fill="#E20000"/>
</svg>
