<svg width="263" height="274" viewBox="0 0 263 274" fill="none" xmlns="http://www.w3.org/2000/svg">
<path d="M11 74L6 85L4 94H15L32.5 81.5L44 85V94L32.5 104L37 118L95.5 149.5V163.5H62.5L56.5 168.5L68 174V186.5H46.5L4 252.5L6 271H15L24 262.5L37 255L52.5 266L90 271L105 262.5L113 255L121.5 262.5L134 271H163L199 266L227 255L241.5 235.5V211V193L234.5 186.5L216.5 174L206.5 168.5L185.5 154L182 139L185.5 129.5L212 118V97L221 85L249 77L259.5 61.5L250.5 52L241.5 61.5L234.5 56.5L241.5 47.5V42.5H227L221 38L206.5 29.5L194.5 14.5L176 3L158 14.5L113 29.5H90L79.5 38L52.5 42.5L28.5 61.5L11 74Z" stroke="#FFFEFE" stroke-width="5"/>
</svg>
