<svg width="283" height="253" viewBox="0 0 283 253" fill="none" xmlns="http://www.w3.org/2000/svg">
<path d="M230.71 38.0387L15.3909 199.616L6.37427 207.986L12.9957 211.046L24.658 212.989L31.5807 208.939L43.1798 203.813L56.6889 189.491L66.4084 193.832L67.6574 204.849L63.1965 214.335L50.292 220.969L45.9519 228.265L51.6629 233.061L99.8938 248.277L128.646 228.416L151.963 209.443L168.987 174.038L162.693 151.074L161.596 141.401L168.395 129.744L177.141 128.752L189.291 138.261L209.096 150.168L218.48 151.553L234.24 147.317L242.499 142.026L247.325 135.764L249.964 126.484L245.071 115.88L238.813 109.513L232.828 102.299L228.209 94.1141L231.03 86.446L271.982 40.7079L276.928 28.9888L279.228 6.95562L274.156 4.53698L268.296 8.19502L230.71 38.0387Z" stroke="white" stroke-width="7"/>
</svg>
