<svg width="371" height="339" viewBox="0 0 371 339" fill="none" xmlns="http://www.w3.org/2000/svg">
<path d="M4 29.3767V48.1333L10.785 59.1667L22.0935 72.4067L46.972 93.37L63.9346 99.99L128.393 178.327L125 189.36L115.953 191.567L93.3364 178.327L79.7664 183.843L71.8505 191.567L84.2897 215.84L115.953 254.457L128.393 262.18H147.617L169.103 266.593L214.336 327.277L231.299 335L256.178 327.277L268.617 312.933V291.97L256.178 271.007L158.925 215.84L138.57 202.6V191.567L147.617 183.843H158.925L169.103 198.187H184.935L205.29 191.567L262.963 167.293L307.065 173.913H325.159V161.777L243.738 129.78L231.299 116.54L223.383 99.99L128.393 93.37L115.953 80.13V66.89L128.393 59.1667L342.121 66.89L359.084 59.1667L367 41.5133V23.86L347.776 9.51667H277.664L262.963 18.3433H243.738L214.336 4L173.626 18.3433L40.1869 4L22.0935 9.51667L4 29.3767Z" stroke="white" stroke-width="7"/>
</svg>
