<svg width="348" height="300" viewBox="0 0 348 300" fill="none" xmlns="http://www.w3.org/2000/svg">
<path d="M4 152.58V157.739V162.898L20.4672 175.279L30.1538 200.042V218.615L24.3419 230.996V242.346L54.3704 270.205L58.245 278.459H65.0256V282.587L75.6809 291.873L86.3362 288.777L99.8974 296L108.615 291.873L115.396 282.587L127.02 291.873H134.769L139.613 285.682L155.111 261.951L166.735 251.633L267.476 187.661V180.438L264.57 171.152L250.04 162.898V154.643L255.852 149.484L267.476 154.643H279.1L293.63 145.357L312.034 124.721H318.815L322.689 117.498V98.9258L330.439 82.417H344V72.0989L337.219 65.9081V57.6537V47.3357L304.285 29.7951L300.41 39.0813L293.63 53.5265L283.943 57.6537L267.476 65.9081V61.7809L279.1 47.3357H267.476L255.852 53.5265L236.479 61.7809L225.823 47.3357H209.356L183.202 42.1767L166.735 25.6678V4H161.892L149.299 10.1908L134.769 15.3498L123.145 21.5406L120.239 33.9223H113.459L103.772 29.7951L92.1481 33.9223V29.7951L84.3989 25.6678H75.6809L71.8063 29.7951L64.057 39.0813L58.245 42.1767V47.3357L65.0256 57.6537H71.8063V70.0353L47.5897 94.7986V103.053L41.7778 108.212V122.657L24.3419 144.325L4 152.58Z" stroke="white" stroke-width="7"/>
</svg>
