<svg width="293" height="97" viewBox="0 0 293 97" fill="none" xmlns="http://www.w3.org/2000/svg">
<rect width="293" height="97" rx="15" fill="#FB9536"/>
<path d="M13.015 58V57.391L13.856 57.159C14.2233 57.0623 14.4747 56.8787 14.61 56.608C14.7647 56.3373 14.842 56.0087 14.842 55.622V41.586C14.668 41.2187 14.5133 40.948 14.378 40.774C14.262 40.5807 14.1363 40.4163 14.001 40.281C13.8657 40.1457 13.682 39.991 13.45 39.817L12.928 39.44V38.831H17.887L27.515 51.997V41.238C27.515 40.8513 27.4473 40.513 27.312 40.223C27.196 39.933 26.9447 39.7397 26.558 39.643L25.688 39.44V38.831H30.009V39.44L29.284 39.643C28.9167 39.759 28.6847 39.962 28.588 40.252C28.5107 40.5227 28.472 40.8513 28.472 41.238V58.116H26.848L15.799 42.92V55.593C15.799 55.999 15.857 56.3373 15.973 56.608C16.089 56.8787 16.3307 57.0623 16.698 57.159L17.481 57.391V58H13.015ZM40.1798 58.493C39.0005 58.493 37.8695 58.2803 36.7868 57.855C35.7042 57.4297 34.7278 56.8013 33.8578 55.97C33.0072 55.1193 32.3305 54.0657 31.8278 52.809C31.3252 51.5523 31.0738 50.083 31.0738 48.401C31.0738 46.7577 31.3252 45.3077 31.8278 44.051C32.3305 42.7943 33.0072 41.7407 33.8578 40.89C34.7278 40.0393 35.7042 39.4013 36.7868 38.976C37.8888 38.5313 39.0198 38.309 40.1798 38.309C41.3398 38.309 42.4612 38.5217 43.5438 38.947C44.6458 39.3723 45.6222 40.0103 46.4728 40.861C47.3235 41.6923 48.0002 42.7363 48.5028 43.993C49.0055 45.2497 49.2568 46.719 49.2568 48.401C49.2568 50.0443 49.0055 51.4943 48.5028 52.751C48.0002 54.0077 47.3235 55.0613 46.4728 55.912C45.6222 56.7627 44.6555 57.4103 43.5728 57.855C42.4902 58.2803 41.3592 58.493 40.1798 58.493ZM40.1798 57.623C41.2818 57.623 42.1712 57.3427 42.8478 56.782C43.5245 56.202 44.0175 55.2353 44.3268 53.882C44.6362 52.5287 44.7908 50.7017 44.7908 48.401C44.7908 46.1003 44.6362 44.283 44.3268 42.949C44.0175 41.5957 43.5245 40.6387 42.8478 40.078C42.1712 39.498 41.2818 39.208 40.1798 39.208C39.0972 39.208 38.2078 39.498 37.5118 40.078C36.8352 40.6387 36.3422 41.5957 36.0328 42.949C35.7235 44.283 35.5688 46.1003 35.5688 48.401C35.5688 50.7017 35.7235 52.5287 36.0328 53.882C36.3422 55.2353 36.8352 56.202 37.5118 56.782C38.2078 57.3427 39.0972 57.623 40.1798 57.623ZM60.5351 58V57.391L61.6951 57.159C62.5071 56.985 62.9131 56.5113 62.9131 55.738V47.821C62.9131 46.4677 62.9131 45.1143 62.9131 43.761C62.9131 42.4077 62.9035 41.0543 62.8841 39.701H60.5931C59.9745 39.701 59.5201 39.8653 59.2301 40.194C58.9401 40.5227 58.6501 40.9867 58.3601 41.586L57.3451 43.732H56.5331L56.6781 38.831H73.3241L73.4691 43.732H72.6571L71.6421 41.586C71.3521 40.9867 71.0621 40.5227 70.7721 40.194C70.4821 39.8653 70.0278 39.701 69.4091 39.701H67.0891V55.738C67.0891 56.5307 67.4951 57.0043 68.3071 57.159L69.4961 57.391V58H60.5351ZM74.7168 58V57.391L75.3258 57.217C75.7125 57.101 75.9541 56.9367 76.0508 56.724C76.1668 56.492 76.2248 56.173 76.2248 55.767C76.2441 54.6457 76.2538 53.5243 76.2538 52.403C76.2538 51.2817 76.2538 50.1507 76.2538 49.01V47.821C76.2538 46.6997 76.2538 45.5783 76.2538 44.457C76.2538 43.3357 76.2441 42.2143 76.2248 41.093C76.2248 40.687 76.1765 40.3777 76.0798 40.165C75.9831 39.933 75.7415 39.759 75.3548 39.643L74.7168 39.44V38.831H82.8368C85.0988 38.831 86.8388 39.266 88.0568 40.136C89.2941 40.9867 89.9128 42.1853 89.9128 43.732C89.9128 44.5827 89.5745 45.443 88.8978 46.313C88.2405 47.183 87.2255 47.85 85.8528 48.314L89.7968 55.999C90.1255 56.637 90.6378 57.072 91.3338 57.304L91.8848 57.42V58H86.7518L82.4308 48.952H80.3428C80.3428 50.3247 80.3428 51.562 80.3428 52.664C80.3428 53.766 80.3525 54.8003 80.3718 55.767C80.3718 56.1537 80.4298 56.463 80.5458 56.695C80.6811 56.927 80.9325 57.0913 81.2998 57.188L81.9958 57.391V58H74.7168ZM80.3428 48.111H81.9088C83.2815 48.111 84.2868 47.763 84.9248 47.067C85.5628 46.371 85.8818 45.3077 85.8818 43.877C85.8818 42.4463 85.5725 41.3927 84.9538 40.716C84.3545 40.02 83.3781 39.672 82.0248 39.672H80.3718C80.3718 40.426 80.3621 41.1993 80.3428 41.992C80.3428 42.7653 80.3428 43.645 80.3428 44.631C80.3428 45.5977 80.3428 46.7577 80.3428 48.111ZM92.661 58V57.391L93.444 57.159C93.85 57.043 94.1593 56.869 94.372 56.637C94.604 56.405 94.7877 56.086 94.923 55.68L100.781 38.744H103.188L109.017 55.796C109.172 56.2213 109.346 56.55 109.539 56.782C109.732 56.9947 110.042 57.1687 110.467 57.304L110.902 57.42V58H103.536V57.42L104.029 57.275C104.454 57.1397 104.706 56.927 104.783 56.637C104.88 56.347 104.86 55.9893 104.725 55.564L103.507 51.823H97.098L95.851 55.506C95.7157 55.9313 95.677 56.2793 95.735 56.55C95.793 56.8207 96.0347 57.0333 96.46 57.188L97.098 57.391V58H92.661ZM97.388 50.982H103.246L100.404 42.253L97.388 50.982ZM120.998 58.493C119.123 58.493 117.431 58.1063 115.923 57.333C114.415 56.5597 113.216 55.419 112.327 53.911C111.457 52.403 111.022 50.5663 111.022 48.401C111.022 46.777 111.283 45.3367 111.805 44.08C112.346 42.8233 113.081 41.7697 114.009 40.919C114.956 40.049 116.039 39.4013 117.257 38.976C118.475 38.5313 119.77 38.309 121.143 38.309C122.206 38.309 123.202 38.4347 124.13 38.686C125.058 38.918 125.947 39.266 126.798 39.73L126.914 43.529H126.131L124.913 41.238C124.72 40.8513 124.507 40.5033 124.275 40.194C124.062 39.8847 123.782 39.6623 123.434 39.527C122.951 39.295 122.38 39.179 121.723 39.179C120.582 39.179 119.538 39.469 118.591 40.049C117.663 40.629 116.919 41.5957 116.358 42.949C115.797 44.283 115.517 46.11 115.517 48.43C115.517 50.7307 115.778 52.5577 116.3 53.911C116.841 55.2643 117.566 56.231 118.475 56.811C119.384 57.3717 120.408 57.652 121.549 57.652C122.071 57.652 122.496 57.6133 122.825 57.536C123.154 57.4587 123.482 57.3523 123.811 57.217C124.198 57.0623 124.497 56.84 124.71 56.55C124.923 56.2407 125.106 55.8927 125.261 55.506L126.363 52.867H127.146L127.03 57.043C126.199 57.507 125.28 57.8647 124.275 58.116C123.27 58.3673 122.177 58.493 120.998 58.493ZM128.554 58V57.391L129.163 57.217C129.549 57.101 129.801 56.927 129.917 56.695C130.033 56.463 130.091 56.1537 130.091 55.767V41.093C130.091 40.687 130.023 40.3777 129.888 40.165C129.772 39.933 129.52 39.759 129.134 39.643L128.554 39.44V38.831H135.601V39.44L134.992 39.643C134.624 39.7397 134.383 39.904 134.267 40.136C134.151 40.368 134.093 40.687 134.093 41.093V55.796C134.093 56.1827 134.16 56.492 134.296 56.724C134.431 56.9367 134.682 57.101 135.05 57.217L135.601 57.391V58H128.554ZM139.11 58V57.391L139.458 57.304C139.825 57.2073 140.018 57.0237 140.038 56.753C140.057 56.4823 139.931 56.173 139.661 55.825L134.122 48.14L141.198 40.948C141.488 40.658 141.642 40.397 141.662 40.165C141.7 39.9137 141.526 39.7203 141.14 39.585L140.647 39.44V38.831H145.229V39.44L144.475 39.643C144.03 39.7783 143.672 39.9427 143.402 40.136C143.131 40.31 142.822 40.5807 142.474 40.948L137.312 46.197L143.953 55.68C144.262 56.1053 144.552 56.4437 144.823 56.695C145.113 56.9463 145.499 57.1397 145.983 57.275L146.389 57.391V58H139.11ZM159.907 58.493C158.844 58.493 157.761 58.3577 156.659 58.087C155.577 57.8357 154.668 57.4973 153.933 57.072L154.107 53.041H154.948L155.847 55.042C156.118 55.6027 156.398 56.0667 156.688 56.434C156.978 56.8013 157.365 57.0817 157.848 57.275C158.177 57.4103 158.486 57.507 158.776 57.565C159.086 57.6037 159.424 57.623 159.791 57.623C160.971 57.623 161.899 57.3233 162.575 56.724C163.271 56.1053 163.619 55.2933 163.619 54.288C163.619 53.3793 163.378 52.664 162.894 52.142C162.43 51.62 161.676 51.1173 160.632 50.634L159.443 50.112C157.819 49.3967 156.534 48.5653 155.586 47.618C154.658 46.6707 154.194 45.414 154.194 43.848C154.194 42.688 154.484 41.702 155.064 40.89C155.664 40.0587 156.485 39.4207 157.529 38.976C158.573 38.5313 159.791 38.309 161.183 38.309C162.208 38.309 163.165 38.4443 164.054 38.715C164.963 38.9857 165.756 39.353 166.432 39.817L166.229 43.413H165.388L164.315 41.238C164.006 40.6 163.706 40.1457 163.416 39.875C163.146 39.585 162.807 39.4013 162.401 39.324C162.169 39.2853 161.966 39.2563 161.792 39.237C161.638 39.2177 161.425 39.208 161.154 39.208C160.207 39.208 159.385 39.4883 158.689 40.049C158.013 40.5903 157.674 41.3443 157.674 42.311C157.674 43.239 157.935 43.993 158.457 44.573C158.979 45.153 159.733 45.6653 160.719 46.11L162.024 46.661C163.9 47.473 165.243 48.343 166.055 49.271C166.867 50.1797 167.273 51.3493 167.273 52.78C167.273 54.4813 166.626 55.8637 165.33 56.927C164.054 57.971 162.247 58.493 159.907 58.493ZM168.627 58V57.391L169.207 57.188C169.555 57.0913 169.797 56.927 169.932 56.695C170.067 56.4437 170.145 56.1053 170.164 55.68V41.093C170.145 40.687 170.077 40.3777 169.961 40.165C169.845 39.933 169.603 39.759 169.236 39.643L168.627 39.44V38.831H182.431L182.634 43.471H181.822L180.662 40.861C180.507 40.4937 180.333 40.2133 180.14 40.02C179.947 39.8073 179.657 39.701 179.27 39.701H174.34C174.321 40.8997 174.311 42.137 174.311 43.413C174.311 44.6697 174.311 46.0907 174.311 47.676H177.182C177.569 47.676 177.859 47.5793 178.052 47.386C178.265 47.1733 178.458 46.893 178.632 46.545L179.125 45.443H179.763V50.808H179.125L178.603 49.706C178.448 49.358 178.274 49.0777 178.081 48.865C177.888 48.6523 177.598 48.546 177.211 48.546H174.311C174.311 49.938 174.311 51.1367 174.311 52.142C174.311 53.1473 174.311 54.0463 174.311 54.839C174.33 55.6123 174.34 56.376 174.34 57.13H179.908C180.295 57.13 180.594 57.0333 180.807 56.84C181.02 56.6273 181.194 56.3373 181.329 55.97L182.402 53.36H183.214L183.011 58H168.627ZM184.685 58V57.391L185.265 57.217C185.671 57.0817 185.932 56.9077 186.048 56.695C186.164 56.463 186.222 56.144 186.222 55.738V41.064C186.222 40.6773 186.164 40.3777 186.048 40.165C185.932 39.933 185.68 39.7493 185.294 39.614L184.685 39.44V38.831H191.877V39.44L191.326 39.614C190.958 39.7493 190.707 39.933 190.572 40.165C190.456 40.397 190.398 40.716 190.398 41.122V57.13H194.661C195.318 57.13 195.811 56.9657 196.14 56.637C196.468 56.3083 196.778 55.8347 197.068 55.216L198.141 52.809H198.953L198.663 58H184.685ZM200.063 58V57.391L200.643 57.188C200.991 57.0913 201.232 56.927 201.368 56.695C201.503 56.4437 201.58 56.1053 201.6 55.68V41.093C201.58 40.687 201.513 40.3777 201.397 40.165C201.281 39.933 201.039 39.759 200.672 39.643L200.063 39.44V38.831H213.867L214.07 43.471H213.258L212.098 40.861C211.943 40.4937 211.769 40.2133 211.576 40.02C211.382 39.8073 211.092 39.701 210.706 39.701H205.776C205.756 40.8997 205.747 42.137 205.747 43.413C205.747 44.6697 205.747 46.0907 205.747 47.676H208.618C209.004 47.676 209.294 47.5793 209.488 47.386C209.7 47.1733 209.894 46.893 210.068 46.545L210.561 45.443H211.199V50.808H210.561L210.039 49.706C209.884 49.358 209.71 49.0777 209.517 48.865C209.323 48.6523 209.033 48.546 208.647 48.546H205.747C205.747 49.938 205.747 51.1367 205.747 52.142C205.747 53.1473 205.747 54.0463 205.747 54.839C205.766 55.6123 205.776 56.376 205.776 57.13H211.344C211.73 57.13 212.03 57.0333 212.243 56.84C212.455 56.6273 212.629 56.3373 212.765 55.97L213.838 53.36H214.65L214.447 58H200.063ZM225.755 58.493C223.88 58.493 222.188 58.1063 220.68 57.333C219.172 56.5597 217.973 55.419 217.084 53.911C216.214 52.403 215.779 50.5663 215.779 48.401C215.779 46.777 216.04 45.3367 216.562 44.08C217.103 42.8233 217.838 41.7697 218.766 40.919C219.713 40.049 220.796 39.4013 222.014 38.976C223.232 38.5313 224.527 38.309 225.9 38.309C226.963 38.309 227.959 38.4347 228.887 38.686C229.815 38.918 230.704 39.266 231.555 39.73L231.671 43.529H230.888L229.67 41.238C229.477 40.8513 229.264 40.5033 229.032 40.194C228.819 39.8847 228.539 39.6623 228.191 39.527C227.708 39.295 227.137 39.179 226.48 39.179C225.339 39.179 224.295 39.469 223.348 40.049C222.42 40.629 221.676 41.5957 221.115 42.949C220.554 44.283 220.274 46.11 220.274 48.43C220.274 50.7307 220.535 52.5577 221.057 53.911C221.598 55.2643 222.323 56.231 223.232 56.811C224.141 57.3717 225.165 57.652 226.306 57.652C226.828 57.652 227.253 57.6133 227.582 57.536C227.911 57.4587 228.239 57.3523 228.568 57.217C228.955 57.0623 229.254 56.84 229.467 56.55C229.68 56.2407 229.863 55.8927 230.018 55.506L231.12 52.867H231.903L231.787 57.043C230.956 57.507 230.037 57.8647 229.032 58.116C228.027 58.3673 226.934 58.493 225.755 58.493ZM237.226 58V57.391L238.386 57.159C239.198 56.985 239.604 56.5113 239.604 55.738V47.821C239.604 46.4677 239.604 45.1143 239.604 43.761C239.604 42.4077 239.594 41.0543 239.575 39.701H237.284C236.665 39.701 236.211 39.8653 235.921 40.194C235.631 40.5227 235.341 40.9867 235.051 41.586L234.036 43.732H233.224L233.369 38.831H250.015L250.16 43.732H249.348L248.333 41.586C248.043 40.9867 247.753 40.5227 247.463 40.194C247.173 39.8653 246.718 39.701 246.1 39.701H243.78V55.738C243.78 56.5307 244.186 57.0043 244.998 57.159L246.187 57.391V58H237.226ZM251.407 58V57.391L251.987 57.188C252.335 57.0913 252.577 56.927 252.712 56.695C252.848 56.4437 252.925 56.1053 252.944 55.68V41.093C252.925 40.687 252.857 40.3777 252.741 40.165C252.625 39.933 252.384 39.759 252.016 39.643L251.407 39.44V38.831H265.211L265.414 43.471H264.602L263.442 40.861C263.288 40.4937 263.114 40.2133 262.92 40.02C262.727 39.8073 262.437 39.701 262.05 39.701H257.12C257.101 40.8997 257.091 42.137 257.091 43.413C257.091 44.6697 257.091 46.0907 257.091 47.676H259.962C260.349 47.676 260.639 47.5793 260.832 47.386C261.045 47.1733 261.238 46.893 261.412 46.545L261.905 45.443H262.543V50.808H261.905L261.383 49.706C261.229 49.358 261.055 49.0777 260.861 48.865C260.668 48.6523 260.378 48.546 259.991 48.546H257.091C257.091 49.938 257.091 51.1367 257.091 52.142C257.091 53.1473 257.091 54.0463 257.091 54.839C257.111 55.6123 257.12 56.376 257.12 57.13H262.688C263.075 57.13 263.375 57.0333 263.587 56.84C263.8 56.6273 263.974 56.3373 264.109 55.97L265.182 53.36H265.994L265.791 58H251.407ZM267.465 58V57.391L268.045 57.188C268.664 56.9947 268.973 56.5113 268.973 55.738C268.992 54.636 269.002 53.5147 269.002 52.374C269.002 51.214 269.002 50.0347 269.002 48.836V47.821C269.002 46.6997 269.002 45.5783 269.002 44.457C269.002 43.3357 268.992 42.2143 268.973 41.093C268.973 40.3003 268.673 39.8073 268.074 39.614L267.465 39.44V38.831H275.092C277.122 38.831 278.872 39.208 280.341 39.962C281.81 40.716 282.941 41.8083 283.734 43.239C284.527 44.6503 284.923 46.3613 284.923 48.372C284.923 50.4213 284.488 52.1613 283.618 53.592C282.767 55.0227 281.559 56.115 279.993 56.869C278.446 57.623 276.639 58 274.57 58H267.465ZM273.178 57.159H274.657C276.03 57.159 277.141 56.8883 277.992 56.347C278.862 55.8057 279.5 54.897 279.906 53.621C280.312 52.3257 280.515 50.5857 280.515 48.401C280.515 46.2163 280.312 44.486 279.906 43.21C279.5 41.934 278.872 41.0253 278.021 40.484C277.19 39.9427 276.107 39.672 274.773 39.672H273.178C273.159 41.006 273.149 42.3593 273.149 43.732C273.149 45.0853 273.149 46.4483 273.149 47.821V48.807C273.149 50.257 273.149 51.678 273.149 53.07C273.149 54.4427 273.159 55.8057 273.178 57.159Z" fill="#FCFCFC"/>
</svg>
