<svg width="215" height="347" viewBox="0 0 215 347"  fill="none" xmlns="http://www.w3.org/2000/svg">
<path d="M158.835 30.4266L85.9774 51.2476L52.594 95.8258L33.4211 124.121L37.7068 133.998L40.8647 137.201L57.3308 148.145L65.4511 155.886V166.831L44.9248 239.971V252.25V267.198V277.075L10.4135 318.45L5 328.594L10.4135 335H18.5338L37.7068 301.366L50.3383 285.884L85.9774 259.991V252.25L83.0451 245.844L68.3835 234.365L65.4511 225.823L68.3835 206.337L83.0451 150.815L78.7594 128.392L65.4511 124.121L68.3835 117.448V107.571L83.0451 103.567L99.2857 107.571L103.346 117.448L95.6767 141.739L99.2857 148.145L123.872 128.392L215 18.9484V13.0758L205.075 4L185.451 8.80484L163.797 18.9484L158.835 30.4266Z" stroke="white" stroke-width="7"/>
</svg>
