<svg width="293" height="300" viewBox="0 0 293 300" fill="none" xmlns="http://www.w3.org/2000/svg">
<path d="M24 183L28 171L24 143L14.5 129L5 123.5L14.5 115.5L36.5 99.5L40 84.5L43.5 76.5L63 55.5V45.5L51 39L58.5 31.5L67 18.5L81.5 28.5L92 24.5H103L107.5 18.5L127.5 10L139.5 4L144.5 28.5L169 39L194 42.5L204 49L219 39H234L222.5 49L225.5 52L239.5 42.5L250 39V28.5L254.5 24.5L266.5 28.5L272.5 31.5L278 36.5L281 42.5V52L285.5 55.5L289 66H278L272.5 73.5L266.5 84.5V94.5L257 101.5L250 110.5L234 120.5H222.5L214.5 115.5L209 120.5V129L222.5 135V146.5L139.5 197.5L127.5 206L120.5 219.5L113.5 225.5L107.5 230L81.5 255.5H71L67 263L71 278L58.5 297H51L63 283.5V267.5V258.5L58.5 252.5L71 238.5L88 234.5L97 219.5L103 225.5L97 230L73.5 227L63 222.5L58.5 216H51L48 209L40 206L24 183Z" stroke="#FFFEFE" stroke-width="5"/>
</svg>
