<svg width="144" height="63" viewBox="0 0 144 63" fill="none" xmlns="http://www.w3.org/2000/svg">
<path d="M0.5 42.5007C5.3 67.7007 174.5 -4.49929 66.5 62.5007" stroke="#F04040" stroke-width="5"/>
<path d="M0.351562 18.8516L0.585938 17C1.44531 16.8047 2.23828 16.707 2.96484 16.707C3.31641 16.707 3.63672 16.7148 3.92578 16.7305C4.22266 16.7383 4.48828 16.75 4.72266 16.7656V17.9375C5.79297 17.1875 6.9375 16.8125 8.15625 16.8125C9.75 16.8125 10.9062 17.2695 11.625 18.1836C12.3516 19.0898 12.7148 20.6055 12.7148 22.7305C12.7148 23.8711 12.5469 24.875 12.2109 25.7422C11.875 26.6016 11.418 27.2734 10.8398 27.7578C9.73047 28.7109 8.41797 29.1875 6.90234 29.1875C6.23047 29.1875 5.60547 29.125 5.02734 29V31.0625C5.98047 31.3203 6.58984 31.6172 6.85547 31.9531L6.62109 33.8047H0.585938L0.351562 31.9531C0.554688 31.6641 0.996094 31.3906 1.67578 31.1328V19.6602C1.10547 19.4727 0.664062 19.2031 0.351562 18.8516ZM6.66797 26.7383C7.46484 26.7383 8.09375 26.3828 8.55469 25.6719C9.02344 24.9531 9.25781 23.9688 9.25781 22.7188C9.25781 21.4609 9.12891 20.6016 8.87109 20.1406C8.61328 19.6797 8.14844 19.4492 7.47656 19.4492C6.44531 19.4492 5.62891 19.6875 5.02734 20.1641V26.5508C5.51953 26.6758 6.06641 26.7383 6.66797 26.7383ZM19.7227 29.1875C17.8008 29.1875 16.3555 28.6758 15.3867 27.6523C14.418 26.6289 13.9336 25.1406 13.9336 23.1875C13.9336 22.0078 14.1016 20.9922 14.4375 20.1406C14.7734 19.2812 15.2305 18.6172 15.8086 18.1484C16.9258 17.2578 18.2305 16.8125 19.7227 16.8125C20.7148 16.8125 21.5508 16.9766 22.2305 17.3047C22.918 17.625 23.4375 18.168 23.7891 18.9336C24.1484 19.6914 24.3281 20.7266 24.3281 22.0391C24.3281 23.1953 23.7578 23.7734 22.6172 23.7734H17.4141C17.4766 24.7812 17.7344 25.4922 18.1875 25.9062C18.6484 26.3203 19.375 26.5273 20.3672 26.5273C20.9062 26.5273 21.4219 26.4648 21.9141 26.3398C22.4141 26.207 22.7773 26.0781 23.0039 25.9531L23.3438 25.7656L24.0586 27.6758C23.9727 27.7773 23.8359 27.918 23.6484 28.0977C23.5234 28.2148 23.2695 28.3594 22.8867 28.5312C22.5039 28.7031 22.0352 28.8555 21.4805 28.9883C20.9336 29.1211 20.3477 29.1875 19.7227 29.1875ZM17.4375 21.7812L21.2344 21.6289C21.2656 21.4336 21.2812 21.1641 21.2812 20.8203C21.2812 20.5 21.1523 20.1602 20.8945 19.8008C20.6367 19.4414 20.1914 19.2617 19.5586 19.2617C18.9258 19.2617 18.4414 19.4531 18.1055 19.8359C17.7695 20.2188 17.5469 20.8672 17.4375 21.7812ZM37.0781 22.707C37.0781 24.2695 36.8125 25.5273 36.2812 26.4805C35.75 27.4258 35.0273 28.1133 34.1133 28.543C33.207 28.9648 32.1836 29.1758 31.043 29.1758C29.2617 29.1758 27.8906 28.7031 26.9297 27.7578C25.9766 26.8047 25.5 25.207 25.5 22.9648C25.5 20.9492 26.0273 19.4219 27.082 18.3828C28.1445 17.3359 29.5938 16.8125 31.4297 16.8125C33.3047 16.8125 34.7148 17.2734 35.6602 18.1953C36.6055 19.1172 37.0781 20.6211 37.0781 22.707ZM28.9922 22.9062C28.9922 25.4609 29.7617 26.7383 31.3008 26.7383C32.082 26.7383 32.6602 26.4492 33.0352 25.8711C33.4102 25.2852 33.5977 24.3281 33.5977 23C33.5977 20.5078 32.8125 19.2617 31.2422 19.2617C30.4766 19.2617 29.9102 19.5391 29.543 20.0938C29.1758 20.6406 28.9922 21.5781 28.9922 22.9062ZM38.0156 18.8516L38.25 17C39.1094 16.8047 39.9023 16.707 40.6289 16.707C40.9805 16.707 41.3008 16.7148 41.5898 16.7305C41.8867 16.7383 42.1523 16.75 42.3867 16.7656V17.9375C43.457 17.1875 44.6016 16.8125 45.8203 16.8125C47.4141 16.8125 48.5703 17.2695 49.2891 18.1836C50.0156 19.0898 50.3789 20.6055 50.3789 22.7305C50.3789 23.8711 50.2109 24.875 49.875 25.7422C49.5391 26.6016 49.082 27.2734 48.5039 27.7578C47.3945 28.7109 46.082 29.1875 44.5664 29.1875C43.8945 29.1875 43.2695 29.125 42.6914 29V31.0625C43.6445 31.3203 44.2539 31.6172 44.5195 31.9531L44.2852 33.8047H38.25L38.0156 31.9531C38.2188 31.6641 38.6602 31.3906 39.3398 31.1328V19.6602C38.7695 19.4727 38.3281 19.2031 38.0156 18.8516ZM44.332 26.7383C45.1289 26.7383 45.7578 26.3828 46.2188 25.6719C46.6875 24.9531 46.9219 23.9688 46.9219 22.7188C46.9219 21.4609 46.793 20.6016 46.5352 20.1406C46.2773 19.6797 45.8125 19.4492 45.1406 19.4492C44.1094 19.4492 43.293 19.6875 42.6914 20.1641V26.5508C43.1836 26.6758 43.7305 26.7383 44.332 26.7383ZM51.3281 13.8125L51.5625 11.9609C52.4688 11.75 53.3047 11.6445 54.0703 11.6445C54.8359 11.6445 55.4805 11.668 56.0039 11.7148V26.3398C56.6289 26.5742 57.0703 26.8438 57.3281 27.1484L57.0938 29H51.5625L51.3281 27.1484C51.5469 26.8438 51.9883 26.5742 52.6523 26.3398V14.6211C52.082 14.4336 51.6406 14.1641 51.3281 13.8125ZM64.0898 29.1875C62.168 29.1875 60.7227 28.6758 59.7539 27.6523C58.7852 26.6289 58.3008 25.1406 58.3008 23.1875C58.3008 22.0078 58.4688 20.9922 58.8047 20.1406C59.1406 19.2812 59.5977 18.6172 60.1758 18.1484C61.293 17.2578 62.5977 16.8125 64.0898 16.8125C65.082 16.8125 65.918 16.9766 66.5977 17.3047C67.2852 17.625 67.8047 18.168 68.1562 18.9336C68.5156 19.6914 68.6953 20.7266 68.6953 22.0391C68.6953 23.1953 68.125 23.7734 66.9844 23.7734H61.7812C61.8438 24.7812 62.1016 25.4922 62.5547 25.9062C63.0156 26.3203 63.7422 26.5273 64.7344 26.5273C65.2734 26.5273 65.7891 26.4648 66.2812 26.3398C66.7812 26.207 67.1445 26.0781 67.3711 25.9531L67.7109 25.7656L68.4258 27.6758C68.3398 27.7773 68.2031 27.918 68.0156 28.0977C67.8906 28.2148 67.6367 28.3594 67.2539 28.5312C66.8711 28.7031 66.4023 28.8555 65.8477 28.9883C65.3008 29.1211 64.7148 29.1875 64.0898 29.1875ZM61.8047 21.7812L65.6016 21.6289C65.6328 21.4336 65.6484 21.1641 65.6484 20.8203C65.6484 20.5 65.5195 20.1602 65.2617 19.8008C65.0039 19.4414 64.5586 19.2617 63.9258 19.2617C63.293 19.2617 62.8086 19.4531 62.4727 19.8359C62.1367 20.2188 61.9141 20.8672 61.8047 21.7812ZM76.1719 23.7148H70.6406L70.4062 22.1797C70.8984 21.625 71.6172 21.3477 72.5625 21.3477H78.082L78.3281 22.8828C77.8438 23.4375 77.125 23.7148 76.1719 23.7148ZM85.6641 19.2617C84.1953 19.2617 83.4609 20.5234 83.4609 23.0469C83.4609 24.3281 83.6641 25.2227 84.0703 25.7305C84.4766 26.2305 85.0664 26.4805 85.8398 26.4805C87.0352 26.4805 88.1055 26.3672 89.0508 26.1406L89.7773 27.9922C89.2617 28.3281 88.5703 28.6133 87.7031 28.8477C86.8438 29.0742 86.0039 29.1875 85.1836 29.1875C81.7305 29.1875 80.0039 27.1875 80.0039 23.1875C80.0039 20.8438 80.6055 19.1641 81.8086 18.1484C82.8789 17.2578 84.1836 16.8125 85.7227 16.8125C87.2617 16.8125 88.5391 17.0977 89.5547 17.668C89.5625 17.7461 89.5664 17.8242 89.5664 17.9023C89.5742 17.9805 89.5781 18.0547 89.5781 18.125C89.5781 19.0391 89.3711 19.9023 88.957 20.7148H86.8477C86.6211 20.3086 86.4844 19.832 86.4375 19.2852C86.3359 19.2773 86.2188 19.2734 86.0859 19.2734C85.9609 19.2656 85.8203 19.2617 85.6641 19.2617ZM102.352 22.707C102.352 24.2695 102.086 25.5273 101.555 26.4805C101.023 27.4258 100.301 28.1133 99.3867 28.543C98.4805 28.9648 97.457 29.1758 96.3164 29.1758C94.5352 29.1758 93.1641 28.7031 92.2031 27.7578C91.25 26.8047 90.7734 25.207 90.7734 22.9648C90.7734 20.9492 91.3008 19.4219 92.3555 18.3828C93.418 17.3359 94.8672 16.8125 96.7031 16.8125C98.5781 16.8125 99.9883 17.2734 100.934 18.1953C101.879 19.1172 102.352 20.6211 102.352 22.707ZM94.2656 22.9062C94.2656 25.4609 95.0352 26.7383 96.5742 26.7383C97.3555 26.7383 97.9336 26.4492 98.3086 25.8711C98.6836 25.2852 98.8711 24.3281 98.8711 23C98.8711 20.5078 98.0859 19.2617 96.5156 19.2617C95.75 19.2617 95.1836 19.5391 94.8164 20.0938C94.4492 20.6406 94.2656 21.5781 94.2656 22.9062Z" fill="#454F83"/>
</svg>
