<svg width="215" height="347" viewBox="0 0 215 347"  fill="none" xmlns="http://www.w3.org/2000/svg">
<path d="M24.638 97.2834L19.4194 103.068V124.762L26.8746 131.27L38.0573 138.502V145.733L31.3477 165.257L19.4194 177.55L26.8746 193.459L24.638 205.752L6 218.046L11.2186 222.384L167.032 226L178.961 222.384V212.984L157.34 190.567V184.059L207.29 124.762L200.581 116.085V106.684L187.907 92.2215L167.032 87.1596V61.127L149.885 48.8339L164.05 29.3094L207.29 62.5733L214 56.0651V43.0489L200.581 22.8013L214 4H113.355V32.9251L53.7133 103.068H41.0394L24.638 97.2834Z" stroke="white" stroke-width="7"/>
</svg>
