<svg width="196" height="42" viewBox="0 0 196 42" fill="none" xmlns="http://www.w3.org/2000/svg">
<g filter="url(#filter0_d_207_32)">
<path d="M113.525 0.183407L47.5277 0.906246L36.7115 2.76956L23.2176 7.50906L11.2204 13.977L4.37042 18.1846L0.221261 21.6279L2.95926 24.2611L11.3883 29.3115L23.5173 34.8723L37.1137 39.4988L51.662 41.0843L113.965 40.4019L130.491 20.2011L113.525 0.183407Z" fill="#D0DF1E" fill-opacity="0.49" shape-rendering="crispEdges"/>
<path d="M113.525 0.183407L47.5277 0.906246L36.7115 2.76956L23.2176 7.50906L11.2204 13.977L4.37042 18.1846L0.221261 21.6279L2.95926 24.2611L11.3883 29.3115L23.5173 34.8723L37.1137 39.4988L51.662 41.0843L113.965 40.4019L130.491 20.2011L113.525 0.183407Z" stroke="black" stroke-width="5" shape-rendering="crispEdges"/>
</g>
<g filter="url(#filter1_d_207_32)">
<path d="M31.56 28V24.64H38.736C39.056 24.64 39.344 24.56 39.6 24.4C39.856 24.24 40.056 24.032 40.2 23.776C40.36 23.52 40.44 23.24 40.44 22.936C40.44 22.616 40.36 22.328 40.2 22.072C40.056 21.816 39.856 21.608 39.6 21.448C39.344 21.288 39.056 21.208 38.736 21.208H36.144C35.168 21.208 34.28 21.016 33.48 20.632C32.68 20.248 32.04 19.688 31.56 18.952C31.096 18.2 30.864 17.304 30.864 16.264C30.864 15.24 31.088 14.352 31.536 13.6C31.984 12.848 32.592 12.264 33.36 11.848C34.128 11.416 34.976 11.2 35.904 11.2H43.32V14.56H36.36C36.072 14.56 35.808 14.632 35.568 14.776C35.328 14.92 35.144 15.112 35.016 15.352C34.888 15.592 34.824 15.856 34.824 16.144C34.824 16.432 34.888 16.696 35.016 16.936C35.144 17.16 35.328 17.344 35.568 17.488C35.808 17.632 36.072 17.704 36.36 17.704H39.072C40.144 17.704 41.072 17.912 41.856 18.328C42.656 18.728 43.272 19.296 43.704 20.032C44.152 20.752 44.376 21.6 44.376 22.576C44.376 23.728 44.144 24.712 43.68 25.528C43.232 26.328 42.624 26.944 41.856 27.376C41.088 27.792 40.24 28 39.312 28H31.56ZM52.9646 28C51.5726 28 50.3486 27.744 49.2926 27.232C48.2366 26.704 47.4126 25.984 46.8206 25.072C46.2446 24.144 45.9566 23.072 45.9566 21.856C45.9566 20.512 46.2366 19.36 46.7966 18.4C47.3566 17.44 48.1006 16.704 49.0286 16.192C49.9726 15.664 51.0126 15.4 52.1486 15.4C53.4446 15.4 54.5246 15.672 55.3886 16.216C56.2686 16.76 56.9326 17.504 57.3806 18.448C57.8286 19.376 58.0526 20.44 58.0526 21.64C58.0526 21.848 58.0366 22.096 58.0046 22.384C57.9886 22.656 57.9646 22.872 57.9326 23.032H49.8686C49.9646 23.448 50.1486 23.8 50.4206 24.088C50.6926 24.376 51.0366 24.592 51.4526 24.736C51.8686 24.864 52.3326 24.928 52.8446 24.928H56.6126V28H52.9646ZM49.7726 20.704H54.4526C54.4206 20.448 54.3726 20.2 54.3086 19.96C54.2446 19.72 54.1406 19.512 53.9966 19.336C53.8686 19.144 53.7166 18.984 53.5406 18.856C53.3646 18.712 53.1566 18.6 52.9166 18.52C52.6926 18.44 52.4366 18.4 52.1486 18.4C51.7806 18.4 51.4526 18.464 51.1646 18.592C50.8766 18.72 50.6366 18.896 50.4446 19.12C50.2526 19.328 50.1006 19.576 49.9886 19.864C49.8926 20.136 49.8206 20.416 49.7726 20.704ZM66.2681 28C64.9881 28 63.8521 27.736 62.8601 27.208C61.8681 26.664 61.0841 25.936 60.5081 25.024C59.9321 24.096 59.6441 23.04 59.6441 21.856C59.6441 20.672 59.9321 19.624 60.5081 18.712C61.0841 17.784 61.8681 17.048 62.8601 16.504C63.8521 15.96 64.9881 15.688 66.2681 15.688H68.1161V18.832H66.4121C65.7881 18.832 65.2521 18.968 64.8041 19.24C64.3561 19.496 64.0041 19.856 63.7481 20.32C63.5081 20.768 63.3881 21.28 63.3881 21.856C63.3881 22.432 63.5081 22.952 63.7481 23.416C64.0041 23.864 64.3561 24.224 64.8041 24.496C65.2521 24.752 65.7881 24.88 66.4121 24.88H68.1161V28H66.2681ZM77.3331 28.288C75.9411 28.288 74.7011 28.008 73.6131 27.448C72.5411 26.888 71.7011 26.088 71.0931 25.048C70.4851 24.008 70.1811 22.768 70.1811 21.328V11.2H74.1651V21.544C74.1651 22.168 74.2931 22.736 74.5491 23.248C74.8051 23.744 75.1731 24.144 75.6531 24.448C76.1331 24.736 76.6931 24.88 77.3331 24.88C77.9891 24.88 78.5491 24.736 79.0131 24.448C79.4931 24.144 79.8611 23.744 80.1171 23.248C80.3731 22.736 80.5011 22.168 80.5011 21.544V11.2H84.4851V21.328C84.4851 22.768 84.1731 24.008 83.5491 25.048C82.9411 26.088 82.1011 26.888 81.0291 27.448C79.9571 28.008 78.7251 28.288 77.3331 28.288ZM87.3156 28V11.2H94.9956C96.1316 11.2 97.1636 11.448 98.0916 11.944C99.0356 12.44 99.7796 13.128 100.324 14.008C100.884 14.888 101.164 15.904 101.164 17.056C101.164 18.128 100.908 19.096 100.396 19.96C99.8836 20.808 99.2116 21.496 98.3796 22.024L99.7236 24.304C99.8036 24.416 99.8916 24.504 99.9876 24.568C100.1 24.632 100.244 24.664 100.42 24.664H101.908V28H99.5556C98.8356 28 98.1796 27.832 97.5876 27.496C96.9956 27.144 96.5316 26.688 96.1956 26.128L94.3956 22.936C94.2836 22.936 94.1636 22.936 94.0356 22.936C93.9236 22.936 93.8036 22.936 93.6756 22.936H91.3476V28H87.3156ZM91.3476 19.6H94.5396C95.0036 19.6 95.4356 19.504 95.8356 19.312C96.2356 19.104 96.5476 18.816 96.7716 18.448C97.0116 18.064 97.1316 17.608 97.1316 17.08C97.1316 16.552 97.0116 16.104 96.7716 15.736C96.5316 15.352 96.2116 15.064 95.8116 14.872C95.4276 14.664 95.0036 14.56 94.5396 14.56H91.3476V19.6ZM108.714 28C107.674 28 106.762 27.768 105.978 27.304C105.194 26.84 104.586 26.224 104.154 25.456C103.722 24.688 103.506 23.84 103.506 22.912V11.2H107.538V23.2C107.538 23.584 107.674 23.92 107.946 24.208C108.218 24.496 108.554 24.64 108.954 24.64H113.394V28H108.714Z" fill="#342525"/>
</g>
<defs>
<filter id="filter0_d_207_32" x="-7.52808" y="-2.3291" width="145.273" height="53.915" filterUnits="userSpaceOnUse" color-interpolation-filters="sRGB">
<feFlood flood-opacity="0" result="BackgroundImageFix"/>
<feColorMatrix in="SourceAlpha" type="matrix" values="0 0 0 0 0 0 0 0 0 0 0 0 0 0 0 0 0 0 127 0" result="hardAlpha"/>
<feOffset dy="4"/>
<feGaussianBlur stdDeviation="2"/>
<feComposite in2="hardAlpha" operator="out"/>
<feColorMatrix type="matrix" values="0 0 0 0 0 0 0 0 0 0 0 0 0 0 0 0 0 0 0.25 0"/>
<feBlend mode="normal" in2="BackgroundImageFix" result="effect1_dropShadow_207_32"/>
<feBlend mode="normal" in="SourceGraphic" in2="effect1_dropShadow_207_32" result="shape"/>
</filter>
<filter id="filter1_d_207_32" x="26.864" y="11.2002" width="90.5298" height="25.0879" filterUnits="userSpaceOnUse" color-interpolation-filters="sRGB">
<feFlood flood-opacity="0" result="BackgroundImageFix"/>
<feColorMatrix in="SourceAlpha" type="matrix" values="0 0 0 0 0 0 0 0 0 0 0 0 0 0 0 0 0 0 127 0" result="hardAlpha"/>
<feOffset dy="4"/>
<feGaussianBlur stdDeviation="2"/>
<feComposite in2="hardAlpha" operator="out"/>
<feColorMatrix type="matrix" values="0 0 0 0 0 0 0 0 0 0 0 0 0 0 0 0 0 0 0.25 0"/>
<feBlend mode="normal" in2="BackgroundImageFix" result="effect1_dropShadow_207_32"/>
<feBlend mode="normal" in="SourceGraphic" in2="effect1_dropShadow_207_32" result="shape"/>
</filter>
</defs>
</svg>
