<svg width="719" height="223" viewBox="0 0 719 223" fill="none" xmlns="http://www.w3.org/2000/svg">
<path d="M7.5 182.5L6 186.5L9.5 188L14.5 189L30 190L55 190.5H82H83.5L84.5 187V181L83.5 178.5L82.5 173.5L82 168.5V163V157.5V153L83 148.5L83.5 145L84 140L84.5 137L87 132.5L90 129L92.5 126L95.5 122L99 119L101.5 116.5L104 114L107.5 111.5L109.5 109.5L112.5 106.5L115 104.5L117.5 102.5L120.5 101.5L124 99.5L127.5 99L130 98H133.5H137H139.5H144.5H149L152 98.5L155.5 99L158.5 99.5L161.5 100.5L164.5 101.5L167.5 102.5L171 104L174 105L176.5 106.5L179 108L181 109.5L183.5 111.5L186 113L188.5 115L190.5 117L192.5 119.5L194.5 122L196.5 124.5L198.5 127.5L200 129.5L202 133L203.5 135.5L205 139L206.5 142.5L207.5 145L209 149L210 153.5L211 156.5L211.5 160.5L212 163V168V171.5L211.5 176V179V181L212.5 184.5L213.5 186.5L215 188L217 190.5L221 192.5H250.5H444H501.5V182V177V173V169.5V165L502 160.5V156.5L502.5 152.5L503 149L504 146L505 143L505.5 141L506.5 138L507.5 135.5L508.5 133.5L509.5 131.5L511 129L512.5 127L514.5 125L516.5 123L518 121L519.5 119L521.5 117L523.5 115.5L526.5 113.5L528.5 112L531.5 110L534.5 108.5L536.5 107L539 106L543 104.5L546 103.5L549 102.5L551.5 101.5L555.5 100.5L558 100H562H564.5H568.5L573 100.5L577 101L580.5 101.5L585 102.5L590.5 104L594 105.5L599 108L601.5 109.5L604 110.5L607 112.5L609 114L611.5 116L614 118L615.5 119.5L618 122L620 125L621 126.5L622.5 128.5L624 132L626 135.5L627.5 139.5L628.5 141.5L629.5 143.5L630.5 147L631 149.5V151.5L631.5 154L632 156.5L632.5 159.5V161V163V165V168.5L632 171.5V174L631.5 176L630.5 179L630 180.5L628 186.5L631.5 187.5H633.5H648L651 187H656.5L661.5 186.5L671 184.5L680 182L686 180.5L694 179L698.5 178L703.5 174L705 172L706.5 169.5L707 162.5V157.5V155L708 150.5L710.5 142.5L712.5 136L714.5 129.5V126.5V120L712 117L709.5 114.5L707 111.5L702.5 105.5H668.5L662.5 97.5L656.5 90.5L655.5 89L654.5 88L654 86.5V85L654.5 84L656 82.5L658 81L661 79.5H658.5H654L653 78.5L651.5 77.5H643.5H640H638.5H637L636.5 77V76.5L637.5 75.5L638 75L640.5 73.5L642 72L644 69.5V67.5L642.5 67L638 65.5L632.5 63.5L625.5 61.5L617.5 59L612.5 57L605.5 54.5L600 52.5L593.5 50L589 48.5L580.5 45.5L570 41.5L560.5 38L551 35L536.5 30.5L524.5 26.5L505.5 20L500 18L482 13.5L473.5 11.5L455 7.5L441 6L434.5 5.5L422 4.5L415.5 4H397H380.5L367.5 4.5L360 5L352.5 6.5L345.5 8L341 9L333 12.5L321.5 18.5L312 23L305.5 26L298.5 30L293 33L284 38L277 42L266.5 48L261.5 51L252.5 56L243 61.5L237.5 65.5H231H218.5H200.5L174 66L162 66.5L153 67L144 67.5L138.5 68.5L124 70L114.5 71.5L101.5 74L93.5 75.5L85 77.5L75 82.5L66.5 87.5L59 92.5L51 98L45 102.5L40 106.5L33.5 112.5L28.5 115L20 120.5L12 126.5L7.5 130.5L8.5 138L9 146.5L10 154L12 163L13.5 170L10 174L7.5 178V182.5Z" fill="#D9D9D9" stroke="black" stroke-width="8"/>
<path d="M288.5 52.5L269.5 65.5H285H301.5L327 65H373.5H390L438 63.5H460.5H489.5H517.5L533 62L549 60.5L559 59L565 57.5L567.5 55L566.5 50L560 46L544.5 40L527 32.5L510.5 27.5L483 20L454 14L436.5 11L413 9H401H378L366.5 11L356 14L333 25.5L310.5 37.5L303.5 41L295.5 46L288.5 52.5Z" stroke="black" stroke-width="4"/>
<path d="M290.5 53.5V51.5V51L294 47L298 44L303 41L307 39.5H311H313.5L316 42L317 44V47V52.5L316 58L314.5 61L313.5 62.5L310 63.5H307L304 62.5L301 63.5V65.5H286.5L289 62.5L292 58V55.5L290.5 53.5Z" fill="#474747" stroke="black" stroke-width="4"/>
<path d="M445.5 63.5L461 15.5L463.5 16.5L448.5 63.5H445.5Z" stroke="black" stroke-width="4"/>
<path d="M38.5 113H67.5M67.5 113V119L69 120.5H88L95 113L96 112L67.5 113Z" stroke="black" stroke-width="4"/>
<path d="M217.5 167.5H244M244 167.5H370H388L400 166.5L410 164L417.5 160L423 156L429.5 149.5L435 143.5L442 135.5L446.5 128.5L451.5 121L455 115L459 108.5L461.5 101L463.5 96L465 90V82.5L463.5 78L460.5 73.5L457 70L452 66L451 65L266 66L263 67.5L258.5 69.5L255 71.5L251.5 73.5L247.5 76.5L244.5 79.5L241.5 82L240 86L238.5 89.5L237.5 93L236.5 97.5V101.5V116.5V119.5V126L237.5 133.5L238.5 139L240 144.5L241.5 154.5L243 162L244 167.5Z" stroke="black" stroke-width="4"/>
<path d="M663 105L606 106.5L607 107.5L664 106.5L663 105Z" stroke="black" stroke-width="4"/>
<path d="M650 54L651 52.5L652 51.5L653 50L654 49L655 48L656 47L658 45.5L659.5 44.5L660.5 43.5L662.5 42.5L663.781 41.5H704.5V43.5L703.5 45.5L702.5 47L701.5 49L700 51L699 52.5L697.5 54.5L696 56L694 58L693.5 59L691.5 61.5L688.5 63L686 64L681 65H667.5L665.5 68L665 69.5L664.5 70.5L663.5 72.5L662.5 74.5L661.5 76L661 74.5H655L652 74L647.5 73.5L649 71L646.5 65.5L646 64L645.5 63L645 62.5V62L645.5 60.5L646.5 59.5L647 58.5L648.5 56.5L649 55.5L650 54Z" fill="#D9D9D9" stroke="black" stroke-width="8"/>
<path d="M656.5 45H658.5L657 46.5L655.5 48L653 50L652 51.5L650 53.5L649 54.5L647.5 55L643 55.5L640.5 56.5L638.5 57L636 57.5L634 58H631L614.5 52.5L616 52L620 51L623 50.5L627.5 49.5L632 48.5L635 47.5H637L644 46.5L647.5 46L652.5 45H656.5Z" fill="#D9D9D9"/>
<path d="M694.5 58.5L695.5 57.5L697 56L698 54.5L699.5 52.5L700.5 50.5L702 48.5L703 47L704 45.5L705 43.5V41.5V41H699.5H683L665.5 41.5H664L662.5 42.5L661 43L659.5 44.5L658.5 45M658.5 45H656.5H652.5L647.5 46L644 46.5L637 47.5H635L632 48.5L627.5 49.5L623 50.5L620 51L616 52L614.5 52.5L631 58H634L636 57.5L638.5 57L640.5 56.5L643 55.5L647.5 55L649 54.5L650 53.5L652 51.5L653 50L655.5 48L657 46.5L658.5 45Z" stroke="black" stroke-width="8"/>
<path d="M659.5 86L660.5 87H691.5L690 84L688.5 82.5L687 81.5V80L688 79L688.5 78L690 76.5L691 75L692.5 72L693.5 70.5L695 68.5L696 66L696.5 63.5L696 61.5L695.5 60L694.5 59H694L692 61.5L689.5 63L686 64.5L681 65.5H674.5H667.5L667 66.5L666 68L665 69.5L664.5 70.5L663.5 72L662.5 74.5L662 76.5V77.5L662.5 80L663 83V84L659.5 86Z" fill="#D9D9D9" stroke="black" stroke-width="8"/>
<path d="M671 100.5L699.5 100L698 97.5L696 94.5L694 90.5L692 88L660.5 87.5L671 100.5Z" fill="#6F0519" stroke="black" stroke-width="5"/>
<g filter="url(#filter0_d_172_3)">
<ellipse cx="143" cy="157" rx="57" ry="53" fill="#474747"/>
<ellipse cx="143" cy="157" rx="57" ry="53" stroke="black" stroke-width="10"/>
</g>
<g filter="url(#filter1_d_172_3)">
<ellipse cx="568" cy="157" rx="57" ry="53" fill="#474747"/>
<ellipse cx="568" cy="157" rx="57" ry="53" stroke="black" stroke-width="10"/>
</g>
<defs>
<filter id="filter0_d_172_3" x="77" y="99" width="132" height="124" filterUnits="userSpaceOnUse" color-interpolation-filters="sRGB">
<feFlood flood-opacity="0" result="BackgroundImageFix"/>
<feColorMatrix in="SourceAlpha" type="matrix" values="0 0 0 0 0 0 0 0 0 0 0 0 0 0 0 0 0 0 127 0" result="hardAlpha"/>
<feOffset dy="4"/>
<feGaussianBlur stdDeviation="2"/>
<feComposite in2="hardAlpha" operator="out"/>
<feColorMatrix type="matrix" values="0 0 0 0 0 0 0 0 0 0 0 0 0 0 0 0 0 0 0.25 0"/>
<feBlend mode="normal" in2="BackgroundImageFix" result="effect1_dropShadow_172_3"/>
<feBlend mode="normal" in="SourceGraphic" in2="effect1_dropShadow_172_3" result="shape"/>
</filter>
<filter id="filter1_d_172_3" x="502" y="99" width="132" height="124" filterUnits="userSpaceOnUse" color-interpolation-filters="sRGB">
<feFlood flood-opacity="0" result="BackgroundImageFix"/>
<feColorMatrix in="SourceAlpha" type="matrix" values="0 0 0 0 0 0 0 0 0 0 0 0 0 0 0 0 0 0 127 0" result="hardAlpha"/>
<feOffset dy="4"/>
<feGaussianBlur stdDeviation="2"/>
<feComposite in2="hardAlpha" operator="out"/>
<feColorMatrix type="matrix" values="0 0 0 0 0 0 0 0 0 0 0 0 0 0 0 0 0 0 0.25 0"/>
<feBlend mode="normal" in2="BackgroundImageFix" result="effect1_dropShadow_172_3"/>
<feBlend mode="normal" in="SourceGraphic" in2="effect1_dropShadow_172_3" result="shape"/>
</filter>
</defs>
</svg>
