<svg width="400" height="430" viewBox="0 0 400 430" fill="none" xmlns="http://www.w3.org/2000/svg">
<path id="rocket-path" d="M79 16.5L48 1.5L89 71.5V86.5L83 91.5V106.5L89 125L96.5 159.5L101.5 186L89 215L67.5 233L48 242.5L26 256L7.5 279.5L1 304.5L10 317L26 322H35.5L48 304.5L53 296L64 291L79 296L89 291L96.5 273.5L109 242.5L120 227.5H148.5L159.5 236.5L164.5 273.5L174.5 304.5V317L152 334V342.5L159.5 345.5L208.5 310.5L203 291L208.5 283.5L214 273.5L174.5 141L148.5 100.5L143 80.5L131 71.5L79 16.5Z" stroke="#FF0707"/>
</svg>
