<svg width="215" height="347" viewBox="0 0 215 347"  fill="none" xmlns="http://www.w3.org/2000/svg">
<path d="M3 27.5V11L25 3L40 20L52.5 55.5L87.5 82L123.5 88L145 78L162 55.5L170 44L174.5 49.5L166 68.5V93.5L170 143L204.5 148L233.5 121.5L261.5 107.5L293.5 114L304 129.5L297.5 156.5V171L327 180.5L338.5 196.5L344.5 216L368 223.5L391.5 260.5L404.5 270.5L415.5 260.5L421.5 242.5L319 93.5L304 84.5706H284L270.5 93.5L261.5 84.5706L211.5 121.5L183.5 129.5L108.5 98.5L40 64.5L3 27.5Z" stroke="#FFFEFE" stroke-width="5"/>
</svg>
