<svg width="146" height="46" viewBox="0 0 146 46" fill="none" xmlns="http://www.w3.org/2000/svg">
<rect x="13" y="5" width="7" height="41" fill="white"/>
<rect y="1" width="64" height="4" fill="white"/>
<path d="M22.12 5.296H33.88V6.184H23.008V12.952H32.464V13.84H23.008V21.112H33.88V22H22.12V5.296ZM46.0056 14.008C44.6456 13.736 43.5336 13.44 42.6696 13.12C41.8216 12.784 41.1496 12.336 40.6536 11.776C40.1736 11.2 39.9336 10.464 39.9336 9.568C39.9336 8.64 40.1736 7.824 40.6536 7.12C41.1496 6.416 41.8376 5.872 42.7176 5.488C43.6136 5.104 44.6456 4.912 45.8136 4.912C46.9336 4.912 47.9576 5.152 48.8856 5.632C49.8296 6.096 50.5736 6.752 51.1176 7.6C51.6616 8.448 51.9336 9.416 51.9336 10.504H51.0456C51.0456 9.56 50.8136 8.728 50.3496 8.008C49.8856 7.288 49.2536 6.736 48.4536 6.352C47.6536 5.952 46.7656 5.752 45.7896 5.752C44.9256 5.752 44.1176 5.888 43.3656 6.16C42.6136 6.432 41.9976 6.848 41.5176 7.408C41.0536 7.968 40.8216 8.672 40.8216 9.52C40.8216 10.288 41.0456 10.904 41.4936 11.368C41.9416 11.816 42.5256 12.16 43.2456 12.4C43.9656 12.64 44.9736 12.896 46.2696 13.168C47.5816 13.44 48.5976 13.704 49.3176 13.96C50.0536 14.2 50.6696 14.608 51.1656 15.184C51.6776 15.76 51.9336 16.568 51.9336 17.608C51.9336 18.648 51.6536 19.528 51.0936 20.248C50.5496 20.952 49.8216 21.48 48.9096 21.832C47.9976 22.184 47.0056 22.36 45.9336 22.36C44.6056 22.36 43.4376 22.112 42.4296 21.616C41.4216 21.12 40.6456 20.424 40.1016 19.528C39.5736 18.616 39.3096 17.576 39.3096 16.408H40.1976C40.1976 17.432 40.4216 18.328 40.8696 19.096C41.3336 19.864 41.9976 20.464 42.8616 20.896C43.7256 21.312 44.7496 21.52 45.9336 21.52C47.4056 21.52 48.6216 21.168 49.5816 20.464C50.5576 19.76 51.0456 18.8 51.0456 17.584C51.0456 16.752 50.8376 16.112 50.4216 15.664C50.0056 15.216 49.4776 14.896 48.8376 14.704C48.2136 14.496 47.2696 14.264 46.0056 14.008ZM70.1553 5.296V6.184H63.8433V22H62.9793V6.184H56.6673V5.296H70.1553ZM29.056 29.296C30.112 29.296 30.952 29.456 31.576 29.776C32.328 30.16 32.904 30.688 33.304 31.36C33.72 32.032 33.928 32.784 33.928 33.616C33.928 34.4 33.72 35.128 33.304 35.8C32.888 36.456 32.32 36.976 31.6 37.36C32.464 37.664 33.192 38.192 33.784 38.944C34.376 39.696 34.672 40.544 34.672 41.488C34.672 42.32 34.456 43.088 34.024 43.792C33.608 44.48 33.048 45.024 32.344 45.424C31.992 45.616 31.6 45.76 31.168 45.856C30.736 45.952 30.16 46 29.44 46H22.048V29.296H29.056ZM45.1896 29.296H46.1256L52.9896 46H52.0296L49.7736 40.48H41.5416L39.2616 46H38.3256L45.1896 29.296ZM41.9016 39.616H49.4136L45.6456 30.448L41.9016 39.616ZM63.7713 38.008C62.4113 37.736 61.2993 37.44 60.4353 37.12C59.5873 36.784 58.9153 36.336 58.4193 35.776C57.9392 35.2 57.6992 34.464 57.6992 33.568C57.6992 32.64 57.9392 31.824 58.4193 31.12C58.9153 30.416 59.6033 29.872 60.4833 29.488C61.3793 29.104 62.4113 28.912 63.5793 28.912C64.6993 28.912 65.7233 29.152 66.6512 29.632C67.5953 30.096 68.3393 30.752 68.8833 31.6C69.4273 32.448 69.6993 33.416 69.6993 34.504H68.8113C68.8113 33.56 68.5793 32.728 68.1153 32.008C67.6513 31.288 67.0193 30.736 66.2193 30.352C65.4193 29.952 64.5313 29.752 63.5553 29.752C62.6913 29.752 61.8833 29.888 61.1313 30.16C60.3793 30.432 59.7633 30.848 59.2833 31.408C58.8193 31.968 58.5873 32.672 58.5873 33.52C58.5873 34.288 58.8113 34.904 59.2593 35.368C59.7073 35.816 60.2913 36.16 61.0113 36.4C61.7313 36.64 62.7393 36.896 64.0353 37.168C65.3473 37.44 66.3633 37.704 67.0833 37.96C67.8193 38.2 68.4353 38.608 68.9313 39.184C69.4433 39.76 69.6993 40.568 69.6993 41.608C69.6993 42.648 69.4193 43.528 68.8593 44.248C68.3153 44.952 67.5873 45.48 66.6753 45.832C65.7633 46.184 64.7713 46.36 63.6993 46.36C62.3713 46.36 61.2033 46.112 60.1953 45.616C59.1873 45.12 58.4113 44.424 57.8673 43.528C57.3393 42.616 57.0753 41.576 57.0753 40.408H57.9633C57.9633 41.432 58.1873 42.328 58.6353 43.096C59.0993 43.864 59.7633 44.464 60.6273 44.896C61.4913 45.312 62.5153 45.52 63.6993 45.52C65.1713 45.52 66.3873 45.168 67.3473 44.464C68.3233 43.76 68.8113 42.8 68.8113 41.584C68.8113 40.752 68.6033 40.112 68.1873 39.664C67.7713 39.216 67.2433 38.896 66.6033 38.704C65.9793 38.496 65.0353 38.264 63.7713 38.008ZM75.4169 29.296H87.1769V30.184H76.3049V36.952H85.7609V37.84H76.3049V45.112H87.1769V46H75.4169V29.296Z" fill="black"/>
</svg>
