<svg width="201" height="236" viewBox="0 0 201 236" fill="none" xmlns="http://www.w3.org/2000/svg">
<path d="M41.4634 101.438L32.0976 119.242V122.209L12.5854 160.042L4 178.588L7.12195 188.232L21.1707 203.069H32.0976L41.4634 210.487L53.9512 222.356L72.6829 232L82.8293 230.516L89.0732 222.356L114.829 182.297L120.293 160.042L122.634 137.046L137.463 119.242L142.927 101.438L146.049 84.3758L149.951 73.9902L165.561 48.0261L190.537 22.0621L196 9.45098L190.537 5L157.756 38.3824L137.463 78.4412H114.829L107.805 81.4085L95.3171 84.3758L70.3415 73.9902L53.9512 88.085L41.4634 101.438Z" stroke="white" stroke-width="7"/>
</svg>
