<svg width="177" height="386" viewBox="0 0 177 386" fill="none" xmlns="http://www.w3.org/2000/svg">
<path d="M101.601 107.689L82.1134 139.227V161.689L86.0436 180.975L82.1134 196.403L73.7616 207.975L62.626 213.42V225.899L70.3227 245.866L78.8382 271.504V287.613L73.7616 300.773H59.187L15.7907 245.866H9.07655L4 256.756L19.0659 310.076L29.7103 326.412L155.805 382L169.07 377.462L173 362.714L169.07 351.824L155.805 345.697L140.084 315.521L107.169 310.076L101.601 250.63L107.169 231.345L109.953 213.42L120.597 201.849V180.975V26.4622L107.169 4H93.249L86.0436 13.3025V26.4622L93.249 39.6218L107.169 62.7647V86.8151L101.601 107.689Z" stroke="white" stroke-width="7"/>
</svg>
