<svg width="352" height="293" viewBox="0 0 352 293" fill="none" xmlns="http://www.w3.org/2000/svg">
<path d="M4 67.6312V61.1521M4 61.1521V51.4335L13.3288 44.9544H26.1559L47.1458 77.3498L96.122 146.46L192.908 192.894H224.393L243.051 181.015L251.214 169.137L247.715 150.779L148.597 107.586L132.271 83.8289V67.6312L148.597 61.1521L171.919 67.6312L224.393 100.027L251.214 107.586L269.871 100.027L279.2 83.8289L269.871 67.6312L236.054 31.9962V17.9582L243.051 5L269.871 17.9582L293.193 31.9962L323.512 44.9544L341.003 61.1521L348 91.3878L341.003 122.703L323.512 141.061V181.015L279.2 264.164L236.054 289H164.922L103.119 272.802L4 83.8289V61.1521Z" stroke="white" stroke-width="7"/>
</svg>
