<svg width="126" height="23" viewBox="0 0 126 23" fill="none" xmlns="http://www.w3.org/2000/svg">
<rect y="3" width="84" height="20" rx="10" fill="#FAF2F2"/>
<path d="M6.3125 5.52344C6.82812 5.58594 7.29688 5.63281 7.71875 5.66406C8.125 5.69531 8.47656 5.72656 8.77344 5.75781C9.11719 5.78906 9.42188 5.8125 9.6875 5.82812C9.96875 5.82812 10.3281 5.82031 10.7656 5.80469C11.1406 5.78906 11.6172 5.76563 12.1953 5.73438C12.7734 5.70312 13.4844 5.64844 14.3281 5.57031C13.9219 5.80469 13.5859 6.03906 13.3203 6.27344C13.0703 6.50781 12.875 6.71875 12.7344 6.90625C12.5625 7.125 12.4375 7.34375 12.3594 7.5625C12.3125 7.85937 12.3281 8.4375 12.4062 9.29688C12.4375 9.65625 12.4844 10.1016 12.5469 10.6328C12.625 11.1484 12.7188 11.7656 12.8281 12.4844C12.9531 13.1875 13.1016 14 13.2734 14.9219C13.4609 15.8438 13.6719 16.8906 13.9062 18.0625C14.2188 17.1719 14.4766 16.3828 14.6797 15.6953C14.8828 14.9922 15.0547 14.3906 15.1953 13.8906C15.3516 13.3281 15.4844 12.8281 15.5938 12.3906C15.7031 11.9375 15.8359 11.3516 15.9922 10.6328C16.1172 10.0234 16.2812 9.23438 16.4844 8.26562C16.6875 7.29687 16.9375 6.10156 17.2344 4.67969L18.0781 4.79688C18.1562 5.90625 18.2344 6.88281 18.3125 7.72656C18.4062 8.57031 18.4844 9.28906 18.5469 9.88281C18.6094 10.5703 18.6719 11.1641 18.7344 11.6641C18.7969 12.1172 18.8906 12.6406 19.0156 13.2344C19.125 13.7344 19.2656 14.3516 19.4375 15.0859C19.6094 15.8047 19.8359 16.6172 20.1172 17.5234C20.3984 16.4141 20.6484 15.4219 20.8672 14.5469C21.1016 13.6719 21.2969 12.8984 21.4531 12.2266C21.625 11.5547 21.7656 10.9766 21.875 10.4922C22 10.0078 22.1016 9.60156 22.1797 9.27344C22.3516 8.49219 22.4531 7.96875 22.4844 7.70312C22.4688 7.40625 22.3984 7.11719 22.2734 6.83594C22.1641 6.58594 21.9922 6.3125 21.7578 6.01562C21.5234 5.71875 21.1797 5.42969 20.7266 5.14844C21.6797 5.17969 22.4531 5.20313 23.0469 5.21875C23.6562 5.21875 24.1406 5.21875 24.5 5.21875H25.4375H26.2812C26.5938 5.21875 27 5.21875 27.5 5.21875C28.0156 5.20313 28.6719 5.17969 29.4688 5.14844C28.7812 5.50781 28.2266 5.83594 27.8047 6.13281C27.3828 6.42969 27.0547 6.67969 26.8203 6.88281C26.5391 7.13281 26.3359 7.34375 26.2109 7.51562C26.0859 7.82813 25.8828 8.53125 25.6016 9.625C25.4766 10.0938 25.3359 10.6797 25.1797 11.3828C25.0234 12.0703 24.8359 12.8984 24.6172 13.8672C24.4141 14.8359 24.1797 15.9688 23.9141 17.2656C23.6484 18.5469 23.3516 20.0156 23.0234 21.6719L18.9688 21.25L17.2344 13.9609C16.9688 15.2891 16.7578 16.3672 16.6016 17.1953C16.4453 18.0078 16.3281 18.6406 16.25 19.0938C16.1562 19.6406 16.1016 20.0391 16.0859 20.2891C16.0703 20.5078 16.0547 20.7188 16.0391 20.9219C16.0234 21.0938 16 21.2812 15.9688 21.4844C15.9531 21.6875 15.9297 21.875 15.8984 22.0469H11.75C11.3438 20.2656 10.9766 18.6953 10.6484 17.3359C10.3359 15.9609 10.0547 14.7578 9.80469 13.7266C9.55469 12.6953 9.33594 11.8203 9.14844 11.1016C8.97656 10.3828 8.82031 9.78125 8.67969 9.29688C8.36719 8.17188 8.14062 7.47656 8 7.21094C7.89062 7.08594 7.75 6.9375 7.57812 6.76562C7.4375 6.625 7.26562 6.45312 7.0625 6.25C6.84375 6.03125 6.59375 5.78906 6.3125 5.52344ZM33.2188 11.5C33.625 11.5 34.0469 11.5781 34.4844 11.7344C34.9219 11.875 35.3438 12.0625 35.75 12.2969C36.1562 12.5156 36.5234 12.7578 36.8516 13.0234C37.1953 13.2734 37.4766 13.5156 37.6953 13.75C38.0859 14.1719 38.3516 14.7422 38.4922 15.4609C38.6484 16.1641 38.6797 16.8906 38.5859 17.6406C38.4922 18.375 38.2734 19.0703 37.9297 19.7266C37.5859 20.3828 37.1094 20.8672 36.5 21.1797C36.0625 21.3984 35.6328 21.5703 35.2109 21.6953C34.7891 21.8203 34.3828 21.9141 33.9922 21.9766C33.6016 22.0391 33.2344 22.0703 32.8906 22.0703C32.5469 22.0703 32.25 22.0625 32 22.0469C31.5312 22.0156 31.0391 21.8516 30.5234 21.5547C30.0234 21.2578 29.5469 20.8906 29.0938 20.4531C28.6562 20.0156 28.2812 19.5391 27.9688 19.0234C27.6562 18.4922 27.4688 17.9922 27.4062 17.5234C27.3125 16.8828 27.2969 16.2109 27.3594 15.5078C27.4219 14.8047 27.6484 14.1562 28.0391 13.5625C28.4453 12.9688 29.0547 12.4766 29.8672 12.0859C30.6953 11.6953 31.8125 11.5 33.2188 11.5ZM32.4453 20.5938C32.6172 20.625 32.8516 20.5859 33.1484 20.4766C33.4453 20.3516 33.7344 20.1562 34.0156 19.8906C34.3125 19.625 34.5703 19.2891 34.7891 18.8828C35.0234 18.4609 35.1641 17.9531 35.2109 17.3594C35.2578 16.7812 35.2578 16.25 35.2109 15.7656C35.1797 15.2812 35.1094 14.8594 35 14.5C34.8906 14.125 34.7656 13.8203 34.625 13.5859C34.4844 13.3516 34.3359 13.1875 34.1797 13.0938C33.9141 12.9531 33.5938 12.8438 33.2188 12.7656C32.8438 12.6719 32.5234 12.6875 32.2578 12.8125C32.1328 12.875 31.9766 13.0078 31.7891 13.2109C31.6016 13.4141 31.4141 13.6719 31.2266 13.9844C31.0391 14.2812 30.8672 14.625 30.7109 15.0156C30.5703 15.4062 30.4688 15.8125 30.4062 16.2344C30.3438 16.6562 30.3281 17.1094 30.3594 17.5938C30.4062 18.0781 30.5078 18.5391 30.6641 18.9766C30.8203 19.3984 31.0391 19.7656 31.3203 20.0781C31.6172 20.375 31.9922 20.5469 32.4453 20.5938ZM45.9922 11.5C46.3984 11.5 46.8203 11.5781 47.2578 11.7344C47.6953 11.875 48.1172 12.0625 48.5234 12.2969C48.9297 12.5156 49.2969 12.7578 49.625 13.0234C49.9688 13.2734 50.25 13.5156 50.4688 13.75C50.8594 14.1719 51.125 14.7422 51.2656 15.4609C51.4219 16.1641 51.4531 16.8906 51.3594 17.6406C51.2656 18.375 51.0469 19.0703 50.7031 19.7266C50.3594 20.3828 49.8828 20.8672 49.2734 21.1797C48.8359 21.3984 48.4062 21.5703 47.9844 21.6953C47.5625 21.8203 47.1562 21.9141 46.7656 21.9766C46.375 22.0391 46.0078 22.0703 45.6641 22.0703C45.3203 22.0703 45.0234 22.0625 44.7734 22.0469C44.3047 22.0156 43.8125 21.8516 43.2969 21.5547C42.7969 21.2578 42.3203 20.8906 41.8672 20.4531C41.4297 20.0156 41.0547 19.5391 40.7422 19.0234C40.4297 18.4922 40.2422 17.9922 40.1797 17.5234C40.0859 16.8828 40.0703 16.2109 40.1328 15.5078C40.1953 14.8047 40.4219 14.1562 40.8125 13.5625C41.2188 12.9688 41.8281 12.4766 42.6406 12.0859C43.4688 11.6953 44.5859 11.5 45.9922 11.5ZM45.2188 20.5938C45.3906 20.625 45.625 20.5859 45.9219 20.4766C46.2188 20.3516 46.5078 20.1562 46.7891 19.8906C47.0859 19.625 47.3438 19.2891 47.5625 18.8828C47.7969 18.4609 47.9375 17.9531 47.9844 17.3594C48.0312 16.7812 48.0312 16.25 47.9844 15.7656C47.9531 15.2812 47.8828 14.8594 47.7734 14.5C47.6641 14.125 47.5391 13.8203 47.3984 13.5859C47.2578 13.3516 47.1094 13.1875 46.9531 13.0938C46.6875 12.9531 46.3672 12.8438 45.9922 12.7656C45.6172 12.6719 45.2969 12.6875 45.0312 12.8125C44.9062 12.875 44.75 13.0078 44.5625 13.2109C44.375 13.4141 44.1875 13.6719 44 13.9844C43.8125 14.2812 43.6406 14.625 43.4844 15.0156C43.3438 15.4062 43.2422 15.8125 43.1797 16.2344C43.1172 16.6562 43.1016 17.1094 43.1328 17.5938C43.1797 18.0781 43.2812 18.5391 43.4375 18.9766C43.5938 19.3984 43.8125 19.7656 44.0938 20.0781C44.3906 20.375 44.7656 20.5469 45.2188 20.5938ZM62.8203 8.61719C62.6797 8.96094 62.5547 9.27344 62.4453 9.55469C62.3516 9.83594 62.2656 10.0859 62.1875 10.3047C62.1094 10.5547 62.0391 10.7734 61.9766 10.9609C61.9141 11.1797 61.8438 11.4297 61.7656 11.7109C61.6875 11.9609 61.5859 12.2734 61.4609 12.6484C61.3516 13.0078 61.2188 13.4375 61.0625 13.9375C60.9375 13.1875 60.7109 12.5938 60.3828 12.1562C60.0547 11.7031 59.7188 11.3516 59.375 11.1016C58.9688 10.8203 58.5312 10.6172 58.0625 10.4922C57.2188 10.3516 56.6094 10.3672 56.2344 10.5391C55.8594 10.7109 55.6094 10.9297 55.4844 11.1953C55.4219 11.3047 55.3516 11.4453 55.2734 11.6172C55.2109 11.7734 55.1562 11.9375 55.1094 12.1094C55.0781 12.2812 55.0703 12.4531 55.0859 12.625C55.1016 12.7969 55.1719 12.9375 55.2969 13.0469C55.375 13.125 55.5781 13.2344 55.9062 13.375C56.2344 13.5 56.625 13.6484 57.0781 13.8203C57.5469 13.9766 58.0391 14.1484 58.5547 14.3359C59.0859 14.5234 59.5859 14.7109 60.0547 14.8984C60.5234 15.0859 60.9297 15.2734 61.2734 15.4609C61.6172 15.6484 61.8438 15.8203 61.9531 15.9766C62.0469 16.1328 62.1484 16.3438 62.2578 16.6094C62.3828 16.8594 62.4688 17.1406 62.5156 17.4531C62.5781 17.75 62.5938 18.0625 62.5625 18.3906C62.5469 18.7031 62.4609 19.0156 62.3047 19.3281C62.1484 19.6406 61.8984 19.9297 61.5547 20.1953C61.2266 20.4609 60.7812 20.6797 60.2188 20.8516C59.5625 21.0547 58.9297 21.1094 58.3203 21.0156C57.7109 20.9219 57.1484 20.7812 56.6328 20.5938C56.1328 20.4062 55.6953 20.2266 55.3203 20.0547C54.9453 19.8672 54.6797 19.7891 54.5234 19.8203C54.3516 19.8516 54.1562 19.9375 53.9375 20.0781C53.7188 20.2188 53.5078 20.3672 53.3047 20.5234C53.1172 20.6641 52.9531 20.7969 52.8125 20.9219C52.6719 21.0312 52.6016 21.0703 52.6016 21.0391C52.6016 21.0078 52.625 20.9141 52.6719 20.7578C52.7344 20.6016 52.7969 20.4141 52.8594 20.1953C52.9375 19.9609 53.0078 19.7109 53.0703 19.4453C53.1484 19.1641 53.2031 18.8984 53.2344 18.6484C53.2656 18.4453 53.3047 18.1953 53.3516 17.8984C53.3828 17.6328 53.4219 17.3125 53.4688 16.9375C53.5312 16.5469 53.6016 16.0781 53.6797 15.5312C53.7578 15.9375 53.8672 16.2891 54.0078 16.5859C54.1641 16.8828 54.3125 17.1406 54.4531 17.3594C54.625 17.6094 54.7891 17.8203 54.9453 17.9922C55.1797 18.2109 55.4531 18.4141 55.7656 18.6016C56.0938 18.7891 56.4219 18.9531 56.75 19.0938C57.0781 19.2188 57.3906 19.2969 57.6875 19.3281C57.9844 19.3594 58.2344 19.3281 58.4375 19.2344C58.6406 19.1406 58.8125 18.9688 58.9531 18.7188C59.1094 18.4688 59.2188 18.1953 59.2812 17.8984C59.3438 17.6016 59.3672 17.3203 59.3516 17.0547C59.3359 16.7734 59.2656 16.5469 59.1406 16.375C59.0469 16.2656 58.8281 16.125 58.4844 15.9531C58.1562 15.7812 57.7578 15.5938 57.2891 15.3906C56.8359 15.1875 56.3516 14.9766 55.8359 14.7578C55.3359 14.5391 54.8594 14.3203 54.4062 14.1016C53.9688 13.8672 53.6016 13.6484 53.3047 13.4453C53.0234 13.2266 52.8672 13.0312 52.8359 12.8594C52.8047 12.6094 52.7812 12.3359 52.7656 12.0391C52.75 11.7266 52.7656 11.4219 52.8125 11.125C52.875 10.8125 52.9844 10.5156 53.1406 10.2344C53.3125 9.95312 53.5625 9.71875 53.8906 9.53125C54.1094 9.40625 54.3984 9.3125 54.7578 9.25C55.1172 9.1875 55.5156 9.15625 55.9531 9.15625C56.3906 9.14062 56.8438 9.15625 57.3125 9.20312C57.7812 9.23438 58.2266 9.28125 58.6484 9.34375C59.0859 9.39062 59.4766 9.45312 59.8203 9.53125C60.1797 9.60938 60.4531 9.67969 60.6406 9.74219C60.8594 9.82031 61.0938 9.82812 61.3438 9.76562C61.5625 9.71875 61.7969 9.61719 62.0469 9.46094C62.2969 9.30469 62.5547 9.02344 62.8203 8.61719ZM63.5469 4.23438C63.9062 4.29687 64.2344 4.34375 64.5312 4.375C64.8281 4.39062 65.0781 4.40625 65.2812 4.42188C65.5156 4.4375 65.7188 4.44531 65.8906 4.44531C66.125 4.42969 66.3984 4.40625 66.7109 4.375C66.9766 4.34375 67.2969 4.30469 67.6719 4.25781C68.0625 4.21094 68.5078 4.14844 69.0078 4.07031C68.7734 4.19531 68.5781 4.32031 68.4219 4.44531C68.2656 4.55469 68.1406 4.67187 68.0469 4.79688C67.9375 4.9375 67.8516 5.07031 67.7891 5.19531C67.7109 5.39844 67.625 5.82031 67.5312 6.46094C67.4375 7.00781 67.3203 7.82031 67.1797 8.89844C67.0547 9.97656 66.8906 11.4375 66.6875 13.2812C67.25 12.7188 67.7812 12.2969 68.2812 12.0156C68.7969 11.7188 69.25 11.5078 69.6406 11.3828C70.0938 11.2422 70.5156 11.1719 70.9062 11.1719C71.3906 11.2188 71.8828 11.375 72.3828 11.6406C72.8984 11.8906 73.375 12.1875 73.8125 12.5312C74.2656 12.875 74.6562 13.2422 74.9844 13.6328C75.3281 14.0234 75.5703 14.3672 75.7109 14.6641C75.8047 14.8672 75.8516 15.1328 75.8516 15.4609C75.8516 15.7734 75.8203 16.1172 75.7578 16.4922C75.6953 16.8672 75.6094 17.25 75.5 17.6406C75.3906 18.0312 75.2812 18.3984 75.1719 18.7422C75.0781 19.0859 74.9922 19.3906 74.9141 19.6562C74.8359 19.9062 74.7891 20.0859 74.7734 20.1953C74.7422 20.4297 74.7578 20.6562 74.8203 20.875C74.8672 21.0625 74.9609 21.2656 75.1016 21.4844C75.2422 21.6875 75.4531 21.8594 75.7344 22C75.5156 21.9688 75.2812 21.9453 75.0312 21.9297C74.7969 21.8984 74.5703 21.875 74.3516 21.8594C74.1016 21.8438 73.8516 21.8359 73.6016 21.8359H72.7578C72.4922 21.8359 72.1875 21.8438 71.8438 21.8594C71.5 21.8594 71.125 21.8672 70.7188 21.8828C70.9375 21.8047 71.125 21.7031 71.2812 21.5781C71.4375 21.4375 71.5703 21.3047 71.6797 21.1797C71.8047 21.0391 71.9141 20.8906 72.0078 20.7344C72.0703 20.6094 72.1484 20.375 72.2422 20.0312C72.3359 19.6719 72.4219 19.2656 72.5 18.8125C72.5781 18.3438 72.6328 17.8516 72.6641 17.3359C72.7109 16.8203 72.7188 16.3281 72.6875 15.8594C72.6719 15.375 72.6016 14.9453 72.4766 14.5703C72.3672 14.1953 72.1953 13.9219 71.9609 13.75C71.2578 13.2188 70.6172 12.9609 70.0391 12.9766C69.4766 12.9766 68.9375 13.2031 68.4219 13.6562C68.2344 13.8281 68.0547 14 67.8828 14.1719C67.7266 14.3281 67.5547 14.5156 67.3672 14.7344C67.1797 14.9375 67.0078 15.1484 66.8516 15.3672C66.8516 15.6016 66.8594 15.8594 66.875 16.1406C66.8906 16.4219 66.9062 16.6953 66.9219 16.9609C66.9375 17.2578 66.9609 17.5547 66.9922 17.8516C67.0234 18.3047 67.0703 18.75 67.1328 19.1875C67.1797 19.5625 67.2422 19.9766 67.3203 20.4297C67.3984 20.8672 67.5 21.2656 67.625 21.625C67.4219 21.5938 67.2109 21.5859 66.9922 21.6016C66.7734 21.6016 66.5625 21.6016 66.3594 21.6016C66.125 21.6172 65.8984 21.625 65.6797 21.625C65.4766 21.6406 65.2656 21.6641 65.0469 21.6953C64.8594 21.7266 64.6562 21.7578 64.4375 21.7891C64.2188 21.8047 64.0078 21.8359 63.8047 21.8828C63.9922 21.5234 64.1484 21.1719 64.2734 20.8281C64.3984 20.4688 64.5 20.1562 64.5781 19.8906C64.6719 19.5781 64.75 19.2734 64.8125 18.9766C64.8594 18.7422 64.8906 18.2969 64.9062 17.6406C64.9375 16.9688 64.9609 16.2031 64.9766 15.3438C64.9922 14.4688 65 13.5469 65 12.5781C65 11.6094 64.9922 10.6875 64.9766 9.8125C64.9609 8.9375 64.9297 8.17188 64.8828 7.51562C64.8516 6.85938 64.8125 6.40625 64.7656 6.15625C64.7031 5.90625 64.6172 5.65625 64.5078 5.40625C64.4141 5.1875 64.2891 4.97656 64.1328 4.77344C63.9766 4.55469 63.7812 4.375 63.5469 4.23438Z" fill="#74C16D" fill-opacity="0.79"/>
</svg>
